<?xml version="1.0" encoding="UTF-8" standalone="no"?>
<svg
   xmlns:dc="http://purl.org/dc/elements/1.1/"
   xmlns:cc="http://creativecommons.org/ns#"
   xmlns:rdf="http://www.w3.org/1999/02/22-rdf-syntax-ns#"
   xmlns:svg="http://www.w3.org/2000/svg"
   xmlns="http://www.w3.org/2000/svg"
   xmlns:sodipodi="http://sodipodi.sourceforge.net/DTD/sodipodi-0.dtd"
   xmlns:inkscape="http://www.inkscape.org/namespaces/inkscape"
   baseprofile="tiny"
   fill="#7c7c7c"
   height="1400"
   stroke="#ffffff"
   stroke-linecap="round"
   stroke-linejoin="round"
   stroke-width="2"
   version="1.2"
   viewbox="-100 -100 1000 1095"
   width="1400"
   id="svg27"
   sodipodi:docname="twmapdot2.svg"
   inkscape:version="1.0 (4035a4fb49, 2020-05-01)">
  <metadata
     id="metadata74">
    <rdf:RDF>
      <cc:Work
         rdf:about="">
        <dc:format>image/svg+xml</dc:format>
        <dc:type
           rdf:resource="http://purl.org/dc/dcmitype/StillImage" />
        <dc:title></dc:title>
      </cc:Work>
    </rdf:RDF>
  </metadata>
  <defs
     id="defs72">
    <clipPath
       id="clipPath508"
       clipPathUnits="userSpaceOnUse">
      <g
         inkscape:label="Clip"
         id="use510">
        <path
           style="stroke-linejoin:round"
           class="area"
           data-type="area"
           d="m 739.79996,857.29998 1.9,5.8 -3,5 -5.6,2.4 -1.4,3.2 1,4 5.6,3.6 6.3,5.2 2.8,7.6 0.3,2.5 -15.6,3.8 -6.4,4.1 -4,3.9 -7.8,5.1 -0.9,5.7 2.3,6 -2.7,4.9 -7.4,4 -0.8,6.9 2.1,9.9 -3,13.2 -0.1,11.2 -4.3,5.9 -8.5,7.2 -2.3,9.8 1.3,8.10002 3,4.6 6.2,6.4 1.2,4.9 -3.9,0.5 -5.2,-0.9 -4.3,0.2 -8.5,6.7 -5.9,-5.5 -7.6,-8.9 -7.2,1.8 -6.6,5.9 -13.1,-6.6 -9.4,4.5 -6.4,7.1 -8,2.8 -17.8,-1.1 -1.7,4.9 -1.3,7.2 -2.6,7.9 0.5,7 -0.1,9.5 -5.7,21.2 -0.1,7.1 2.7,7.5 0.4,8.2 -8.1,20.5 -2.6,-1.1 -1.6,0.1 -1.8,0.7 h -2.2 l -13,-10.2 -12.1,-17.1 12.7,15.4 -1.5,-7.4 -3.8,-7.2 -5.3,-6 -9,-8.4 -3.5,-4.2 -1.6,-4.8 2.2,-4.6 1.1,-4.1 -1.5,-5.8 -2.7,-5.6 -4.9,-7.7 -4.6,-10.2 -1,-4.5 0.1,-3 1.5,-3.6 0.3,-2.4 -0.5,-1.2 -2.7,-2.3 -0.5,-2.3 -2.9,-4.9 -0.7,-2 -2.1,-13.6 6.1,-3.70002 0.2,0.5 3.9,8.60002 4.8,2.5 15.7,2.2 8.2,-0.9 8.4,1 4.2,-1.5 3.5,-2.6 6.5,-2.6 6.3,-4.4 2.4,-5.50002 3,-5.2 5.3,-7.1 6.1,-6.4 6.5,-5.4 7.4,-7.2 6.5,-8.4 10,-17 10.4,-15.1 2.3,-6.6 -1,-6.7 -1.4,-4.5 0.1,-5 3.6,-3.5 6.9,0.7 5.8,-0.6 12.3,-7.3 4.5,-5.4 7.9,-6.1 7.7,-4.3 4.2,-5 3.6,-6.8 8.5,-6.8 18.5,-9.4 4.3,1 5.8,2.2 4.2,5.9 z"
           id="path512"
           name="Kaohsiung City" />
        <path
           style="stroke-linejoin:round"
           class="area"
           data-type="area"
           d="m 569.39996,1166 2,2.9 -0.3,1 -2.7,1.8 -5,4.3 -0.9,-3.3 1.4,-2.7 2.8,-3.6 h 2 z m 126.7,-143.3 3.5,6.6 0.7,4.9 5.4,1.3 5.5,3.6 -2.8,13.8 -0.1,5.2 -2,5 -9.8,4.1 -4.8,2.7 -7.6,1.6 -5.4,4.5 -2.4,6.6 -3.7,6.6 -3,7.5 -0.8,14.7 1.2,6.5 2,6.1 1.1,7.1 v 5.4 l 2.6,5 4.6,5.6 -2.5,3.8 -5.3,3.2 -2.1,3.9 -0.5,4.5 2.7,3.9 3.4,1.7 3.1,4.4 -0.1,5.7 0.6,6.1 3.2,5.9 4.6,4.9 10.2,4.7 4.5,-0.3 0.9,51.6 -1.6,7.3 -2.5,6 -3.4,2.5 -4,3.7 0.1,8.3 1.5,9.2 -0.4,5.9 -4.5,-6.8 -6.8,-5.2 -7.8,-3.5 -8,-1.9 -0.3,6.6 -2.3,2.3 -3.4,-0.8 -3.7,-3.1 -0.2,-2.4 1.3,-7 -5.5,-9.2 -0.5,-2.4 0.1,-2.1 0.4,-3.2 v -10.8 l 0.5,-3.1 2.5,-3.6 0.5,-3 -19.9,-51.6 -1.6,-2.9 -5.5,-6.8 -4.4,-9.9 -2,-2.8 -8.2,-6.5 -5.4,-3 -0.9,-3.7 -0.7,-1.3 -4.4,-2.9 -10,-4.8 -4.5,-3.1 -4.8,-4.2 -2.6,-1.6 8.1,-20.5 -0.4,-8.2 -2.7,-7.5 0.1,-7.1 5.7,-21.2 0.1,-9.5 -0.5,-7 2.6,-7.9 1.3,-7.2 1.7,-4.9 17.8,1.1 8,-2.8 6.4,-7.1 9.4,-4.5 13.1,6.6 6.6,-5.9 7.2,-1.8 7.6,8.9 5.9,5.5 8.5,-6.7 4.3,-0.2 z"
           id="path514"
           name="Pingtung" />
        <path
           style="stroke-linejoin:round"
           class="area"
           data-type="area"
           d="m 483.79996,968.29998 -0.6,1.2 -2.3,-2 -1.7,-4.2 0.3,-1.3 h 0.7 l 0.9,1.2 0.7,1.9 2.1,2.2 z m 0.5,-27.6 -2.9,6.8 3.9,-13.3 0.6,0.1 z m 3.5,-12.8 3.5,-9.9 0.5,-0.1 0.2,1.9 z m 6.3,-22.5 -0.4,2.4 0.6,-10.6 0.5,0.2 z m 149.5,11.5 -2.3,6.6 -10.4,15.1 -10,17 -6.5,8.4 -7.4,7.2 -6.5,5.4 -6.1,6.4 -5.3,7.1 -3,5.2 -2.4,5.50002 -6.3,4.4 -6.5,2.6 -3.5,2.6 -4.2,1.5 -8.4,-1 -8.2,0.9 -15.7,-2.2 -4.8,-2.5 -3.9,-8.60002 -0.2,-0.5 -6.1,3.70002 -1,-6.30002 -1.8,-3.6 -3.9,-3.9 4.7,-3.4 2.7,-6.1 -1.1,-5.2 -6.3,-0.9 -1.2,1.8 -1.1,3.4 -1.8,2.7 -3.3,-0.1 -1.3,-2.3 0.5,-7 -0.8,-2.4 -4.1,-1.8 -2.3,2.1 -1.8,2.9 -2.8,0.7 -2.9,-2.5 -0.7,-3.5 0.7,-3.4 1.1,-2.3 3,-1.6 3.7,-0.5 3.1,-1 1,-3 -1.4,-1.5 -9.4,-2.4 v -1.9 l 7.9,-0.1 -0.8,-2.6 -4.3,-3.7 -2.8,-3.2 0.7,-4 2.5,-1.5 2.7,-0.9 1.4,-2.5 -0.8,-3.9 -1.4,-3.2 0.9,-3 1.4,-3.7 2.3,-2.6 -0.5,-2.3 0.5,-2.3 3.3,-9 1.6,-1.7 2.6,-0.6 -3.7,-2.5 1.6,-4.1 5.2,2 8.9,1.3 7.2,1.8 6.2,-2.8 2.5,-4.9 5.8,-3.6 6.6,-5.1 4.7,-4.8 6.1,-4.6 7.8,-3.5 15.2,-2.8 8.5,-0.5 7.2,2.4 4,2.4 2.1,4.2 1.7,5.1 9.9,10.1 1,7.5 -1.8,14.2 1.6,4.6 4.5,3.5 h 3.8 l 5.3,-2.4 5,-0.6 3.7,1.1 z"
           id="path516"
           name="Tainan City" />
        <path
           style="stroke-linejoin:round"
           class="area"
           data-type="area"
           d="m 724.29996,488.99998 -0.2,0.2 -4.6,1.1 -4.4,-1.7 -2.7,-3.8 -4.3,-2.6 -6.9,-2.7 1.2,-4.1 5.5,-11.4 2.2,-3 0.7,-1.5 v -1.7 l -0.7,-1.9 -1.1,-2.2 1.5,-3 1.8,-1.8 8.3,3.6 15.1,4.8 5.4,2.8 3.8,3.9 1.9,3.7 -1,3.6 -2.4,1.4 -5.1,0.9 -5.9,2.4 -3.4,4.3 -2.3,5.6 z"
           id="path518"
           name="Hsinchu City" />
        <path
           style="stroke-linejoin:round"
           class="area"
           data-type="area"
           d="m 843.09996,523.59998 -2.3,6.5 -1.4,4.7 0.6,4.4 -3.8,5.8 -14,14.2 -4.3,10.5 -2.8,-0.8 -10.6,1 -0.8,0.6 -0.6,-4.9 -4.6,-7.8 -3.3,-3.3 -1.3,-4.4 -5,-4 -12.5,3.2 -4.8,-0.5 -6.8,0.5 -7.7,2.1 -4.1,-1 0.9,-5.1 1.3,-4.6 -1,-4 -1,-2.9 1,-3.1 0.8,-3.5 0.3,-3.9 -0.7,-5.2 -3.9,-3.4 -12.1,-5.7 -6,-4.5 -3.9,-4.4 -4.4,-11.1 2.4,-3.1 2.3,-5.6 3.4,-4.3 5.9,-2.4 5.1,-0.9 2.4,-1.4 1,-3.6 -1.9,-3.7 -3.8,-3.9 -5.4,-2.8 -15.1,-4.8 -8.3,-3.6 1.5,-2.3 0.6,-3.9 0.9,-2.9 2,-2.9 2.7,-2.1 2.5,-0.9 -0.2,-1.2 0.7,-2.9 2.2,-6.1 2.1,-3.3 3.1,1.1 13.7,-1 4.6,3.1 4,8.7 5,2 4.3,1.2 4.1,2 6.8,2.2 3.6,4.2 -1.1,5.8 3.5,3.7 6.5,2.1 4.2,3.1 3.1,3.1 3.8,0.7 3.9,-0.3 3.4,3.5 2.6,4.5 4.3,2.2 3.4,2.6 0.4,5 1.6,7.3 -1.9,7.8 -4.6,6.5 0.5,4.3 5.2,3.9 6.2,3.8 5.5,0.9 4,2.9 7.3,4.1 z"
           id="path520"
           name="Hsinchu" />
        <path
           style="stroke-linejoin:round"
           class="area"
           data-type="area"
           d="m 982.39996,448.89998 2.1,0.5 1.6,2.2 -0.7,2.3 -3.8,-0.1 -1.4,-0.8 -1.7,-2.7 0.9,0.3 z m -47,152.6 h -1.1 l -11.1,-1.7 -18.5,-11.1 -3.8,0.9 -2.4,6 -4.9,4.5 h -6.5 l -8.3,-3.2 -15,-3.8 -6.5,-3.1 -2.5,-2.1 -5.9,-4.7 h -4.9 l -4.7,2.3 -4,0.6 -3.7,-2.5 -4.4,-2.6 -4.9,-1 -1.4,-3.8 0.6,-5.5 -3.6,-1 4.3,-10.5 14,-14.2 3.8,-5.8 -0.6,-4.4 1.4,-4.7 2.3,-6.5 0.5,-1.5 3.9,-1.6 3.3,0.6 3.4,-1.3 2.2,-3.8 -3.1,-12.4 5.4,-3.9 3.1,-0.9 5.7,-1.6 4.9,-1.8 3.8,-3.3 5,-3.5 6.6,-3.2 3.9,-2.8 -0.4,-2 -1,-3.2 -0.2,-4.2 2,-4.9 4.7,-4 3.8,-2.3 13,-5.3 13.5,-8.1 6.2,-1.9 5,-3.6 3.1,-5 3.3,-4.1 3.7,-2 3.5,-1.2 4.6,-2.9 1.6,-3.8 -2.5,-3.6 1.4,-2.9 11.2,-2.3 3.7,-2.5 8.4,-4.4 5.9,-1.3 3.3,1.9 0.8,1.1 -12,6 -5.5,4.7 -18.7,22.8 -2.9,4.8 -2.3,6.8 -1.6,7.7 -0.5,7.6 0.3,7.4 3.3,15.5 -0.2,4 -1.5,3.9 0.2,8.1 3.5,6.3 6.5,4 7.6,1.4 v 1.8 l -3.2,-0.3 -3.1,0.3 -2.6,0.8 -1.9,1.4 2.7,5 1.3,6.5 -0.8,5.6 -6,3.4 -0.4,2.5 0.7,3 1.7,2.7 0.6,2.8 -2.5,2.4 -6.2,3.6 -7,8 -0.3,3.2 0.5,7 -1.2,2.6 -1.3,2.3 -0.8,3.2 -0.5,6.4 -0.6,1.6 -1,1.3 -0.5,1.4 z"
           id="path522"
           name="Yilan" />
        <path
           style="stroke-linejoin:round"
           class="area"
           data-type="area"
           d="m 934.79996,364.99998 -0.3,11.9 0.2,3 3.7,3.9 -0.4,2.5 -2.5,1.8 -4,1.5 -5.1,-0.6 -10.6,-4.4 -3,-2.2 -3.7,-3.4 -2.8,-3.5 -1.7,-3.5 -2.9,-3.7 -0.6,-2.9 3.2,-2.2 7.2,-3.1 4.4,-2.9 1.4,0.9 2.4,2.7 3.9,1.4 z"
           id="path524"
           name="Keelung City" />
        <path
           style="stroke-linejoin:round"
           class="area"
           data-type="area"
           d="m 724.29996,488.99998 4.4,11.1 3.9,4.4 6,4.5 12.1,5.7 3.9,3.4 0.7,5.2 -0.3,3.9 -0.8,3.5 -1,3.1 1,2.9 1,4 -1.3,4.6 -0.9,5.1 4.1,1 7.7,-2.1 6.8,-0.5 4.8,0.5 12.5,-3.2 5,4 1.3,4.4 3.3,3.3 4.6,7.8 0.6,4.9 -3.7,2.6 -1.8,5.6 -4.9,2 -5.3,-0.1 -4.2,3 -4.6,4.4 -5.9,3.2 -11.6,9.2 -6.8,2.9 -8.9,4.7 -5.4,-2.1 -5,-5.6 -6,-2.4 -9.9,-0.8 -5.5,3.3 -0.9,7.4 -5.2,2.8 -12.1,0.7 -11.6,-6.7 -6.6,-1.2 -7.3,-3.6 -15.1,-11.1 -6.3,-5.5 -4.7,-5 -9.2,-14.3 7.2,-8.1 1.9,-4 0.9,-6.6 2.2,-5.6 5.9,-10.4 1.6,-6.3 1.5,-2.7 6.8,-2 1.9,-2.1 1.1,-2.6 1.4,-2.5 4.2,-4.3 4.6,-3.4 5.6,-1.5 7.1,1.3 -0.9,-5.4 2.7,-3.7 3.7,-3.8 1.9,-5.7 0.8,-1.9 3.6,-1.8 0.3,-1.3 6.9,2.7 4.3,2.6 2.7,3.8 4.4,1.7 4.6,-1.1 z"
           id="path526"
           name="Miaoli" />
        <path
           style="stroke-linejoin:round"
           class="area"
           data-type="area"
           d="m 897.39996,413.19998 -4.2,1.7 -5.8,-0.1 -4.8,-1 -3.7,-3.3 -3.8,-4.3 -5.8,-4.6 -3.9,-6.7 1.5,-7.4 -1.2,-6.3 -5.7,-5.5 -3.8,-4.2 1.6,-3 1.8,-2.4 2.1,-4.6 3.6,-4 10.9,-6.4 2.9,-2.5 4,-2 3.8,1.2 2.1,2.2 -0.5,3.6 0.4,3.5 3.2,6.8 2.5,10 3.9,3.5 1.6,4.4 -1.6,6.6 0.1,5.1 4.6,2.6 3.8,3.2 -2,4.3 z"
           id="path528"
           name="Taipei City" />
        <path
           style="stroke-linejoin:round"
           class="area"
           data-type="area"
           d="m 915.89996,357.19998 -4.4,2.9 -7.2,3.1 -3.2,2.2 0.6,2.9 2.9,3.7 1.7,3.5 2.8,3.5 3.7,3.4 3,2.2 10.6,4.4 5.1,0.6 4,-1.5 2.5,-1.8 0.4,-2.5 -3.7,-3.9 -0.2,-3 0.3,-11.9 34.6,8.4 3.2,2 -1.6,3.7 -0.4,2.9 0.7,5.2 2.4,8.7 2.6,4.1 2.2,0.9 7,-1 3.6,0.4 4.2,1.1 3.7,1.9 2,2.5 -8.7,4.3 -0.8,-1.1 -3.3,-1.9 -5.9,1.3 -8.4,4.4 -3.7,2.5 -11.2,2.3 -1.4,2.9 2.5,3.6 -1.6,3.8 -4.6,2.9 -3.5,1.2 -3.7,2 -3.3,4.1 -3.1,5 -5,3.6 -6.2,1.9 -13.5,8.1 -13,5.3 -3.8,2.3 -4.7,4 -2,4.9 0.2,4.2 1,3.2 0.4,2 -3.9,2.8 -6.6,3.2 -5,3.5 -3.8,3.3 -4.9,1.8 -5.7,1.6 -2.5,-5.4 -8.9,-8.5 -1.4,-5.6 -0.8,-5.2 3.1,-3.7 1.5,-5.3 -8.5,-12.3 -5,-2 -7.4,0.4 -5.1,-2.9 1.3,-6.7 -1,-5.1 -5.4,-5.1 -1,-5.1 1,-5.8 -0.2,-6.2 3.7,-4 13.1,-3.9 3.3,-3.4 1,-4.2 -0.5,-4.1 -5.1,-7.5 -4.2,-2.2 -4.1,-1 -3.2,-2.8 -4.7,-3.1 -6.3,-3 -4.2,-4.6 11.2,-2.1 4.8,-1.8 6.1,-5.2 1.9,-0.9 2.2,-0.4 h 3.1 l 3.5,1.1 1.9,2.7 1.2,2.7 1.5,1.6 3.5,-1.4 -3.6,-5.7 -5.8,-5.9 -3.1,-1.9 0.9,-2.7 1.8,-1.5 1.9,-0.9 0.8,-1 2.1,-5.1 3.2,-5.9 6.6,-5.9 9.6,-4.9 11,-2.5 10.8,1.2 4.5,3.4 10,14.2 3.6,7.4 1.2,-0.5 2.7,-0.7 3,-0.4 2.2,0.6 -0.1,0.9 -1.1,1.3 -1,1.8 0.1,2.2 1.1,1.2 z m -18.5,56 7.6,-9.6 2,-4.3 -3.8,-3.2 -4.6,-2.6 -0.1,-5.1 1.6,-6.6 -1.6,-4.4 -3.9,-3.5 -2.5,-10 -3.2,-6.8 -0.4,-3.5 0.5,-3.6 -2.1,-2.2 -3.8,-1.2 -4,2 -2.9,2.5 -10.9,6.4 -3.6,4 -2.1,4.6 -1.8,2.4 -1.6,3 3.8,4.2 5.7,5.5 1.2,6.3 -1.5,7.4 3.9,6.7 5.8,4.6 3.8,4.3 3.7,3.3 4.8,1 5.8,0.1 z"
           id="path530"
           name="New Taipei City" />
        <path
           style="stroke-linejoin:round"
           class="area"
           data-type="area"
           d="m 861.79996,498.79998 -3.1,0.9 -5.4,3.9 3.1,12.4 -2.2,3.8 -3.4,1.3 -3.3,-0.6 -3.9,1.6 -0.5,1.5 -4.8,-2.2 -7.3,-4.1 -4,-2.9 -5.5,-0.9 -6.2,-3.8 -5.2,-3.9 -0.5,-4.3 4.6,-6.5 1.9,-7.8 -1.6,-7.3 -0.4,-5 -3.4,-2.6 -4.3,-2.2 -2.6,-4.5 -3.4,-3.5 -3.9,0.3 -3.8,-0.7 -3.1,-3.1 -4.2,-3.1 -6.5,-2.1 -3.5,-3.7 1.1,-5.8 -3.6,-4.2 -6.8,-2.2 -4.1,-2 -4.3,-1.2 -5,-2 -4,-8.7 -4.6,-3.1 -13.7,1 -3.1,-1.1 8.9,-14.2 6.9,-8.3 7.2,-6.1 18.4,-6.1 4.3,-2.7 3.7,-3.2 4.5,-2.5 9,-3.2 20.1,-3.6 4.2,4.6 6.3,3 4.7,3.1 3.2,2.8 4.1,1 4.2,2.2 5.1,7.5 0.5,4.1 -1,4.2 -3.3,3.4 -13.1,3.9 -3.7,4 0.2,6.2 -1,5.8 1,5.1 5.4,5.1 1,5.1 -1.3,6.7 5.1,2.9 7.4,-0.4 5,2 8.5,12.3 -1.5,5.3 -3.1,3.7 0.8,5.2 1.4,5.6 8.9,8.5 z"
           id="path532"
           name="Taoyuan" />
        <path
           style="stroke-linejoin:round"
           class="area"
           data-type="area"
           d="m 647.19996,689.59998 0.1,3.6 -4.3,1.6 -1.2,2.9 0.5,4 -2,4.6 -1.6,5.4 -0.1,5.7 -1.2,6.6 -0.9,13.4 2.1,6.3 3.6,3.3 3.9,1.4 5.6,2.9 -1,3.5 -3.8,1.5 -2.5,2.3 -2.4,1.6 -1,0.7 -12,-2.4 -5.8,0.1 -12.2,-6 -19.7,-2.3 -11.6,-4.4 -6.6,-1.8 -7.6,-0.4 -22,2.6 -7.6,-4.4 0.8,-1.4 1.6,-7.1 1.2,-3 7.1,-6.8 2,-2.8 2.7,-7.8 4.2,-7.7 5.7,-16.1 2.7,-4.7 3,-3 2.5,-1.7 2.2,-1.1 1.6,-1.4 0.6,-3 1.2,-2.8 5.1,-4 1.2,-3 0.6,-10.1 0.9,-2.8 2.7,-2.6 11.3,-13.2 5.8,1.9 4,3.5 2.7,6.3 1,7.6 4.5,5.4 11.9,3.5 4.3,3.6 3.2,5 2,4 0.1,4 1.2,3.3 4.3,0.8 5.4,3.5 z"
           id="path534"
           name="Changhua" />
        <path
           style="stroke-linejoin:round"
           class="area"
           data-type="area"
           d="m 499.59996,893.19998 -1.8,1.4 -0.4,-1.1 2.4,-3.1 0.9,-2.4 1.1,-1.5 0.6,0.5 0.1,1.1 -1.4,2 z m 2.2,-12.6 -0.7,-0.7 2,-3.8 0.9,-0.4 -0.5,1.9 z m 4.9,-9 -0.1,-4.4 0.5,0.4 0.1,2.9 z m 1.4,-9.7 -0.8,1.6 -0.5,-2 z m -1.3,-6.1 -0.5,1.3 -1.3,-2.1 z m -29.8,1 -3.2,1.6 3.8,-5.4 13.9,-14.1 10.6,-13.5 2.5,-0.8 -9,14.7 -4.5,4.5 -2.9,3.5 -3.8,3.8 -3,2.1 z m 189.5,-51.1 6.1,0.7 6.8,2.6 4.1,1.2 5.1,2.8 -0.3,5.3 -3,5.1 1.2,4.8 2.7,6.5 0.4,5.9 1.1,3.8 7.6,1.4 25.6,0.2 0.9,0.2 -18.5,9.4 -8.5,6.8 -3.6,6.8 -4.2,5 -7.7,4.3 -7.9,6.1 -4.5,5.4 -12.3,7.3 -5.8,0.6 -6.9,-0.7 -3.6,3.5 -0.1,5 1.4,4.5 1,6.7 -8.4,-1 -3.7,-1.1 -5,0.6 -5.3,2.4 h -3.8 l -4.5,-3.5 -1.6,-4.6 1.8,-14.2 -1,-7.5 -9.9,-10.1 -1.7,-5.1 -2.1,-4.2 -4,-2.4 -7.2,-2.4 -8.5,0.5 -15.2,2.8 -7.8,3.5 -6.1,4.6 -4.7,4.8 -6.6,5.1 -5.8,3.6 -2.5,4.9 -6.2,2.8 -7.2,-1.8 -8.9,-1.3 -5.2,-2 3.8,-0.3 3.3,-1.4 1.4,0.5 -0.9,-3.2 -2.2,1.6 -1.8,-0.5 -2.5,-0.1 v -3.3 l 2.4,-5.6 3.7,-0.3 5.4,0.1 -3.7,-10.5 -4.1,-8 1.9,-3.7 v -1.9 l -3.1,-1.5 0.4,-1.8 1.8,-2 0.9,-2.6 4,-5.2 -8.5,0.5 -0.2,-8.7 11.6,-1.4 8.3,4.7 6.1,0.1 3.9,-3.2 1.7,-4.9 2.1,-3 5.3,-0.8 7,-5.7 4.4,-2.4 3.8,-3.8 16.3,-9.4 7.2,-2 12.6,-2.3 6.9,-0.4 5.3,4.6 5,5.9 12.6,4.6 3.7,-0.5 8.3,-2.4 4.7,3.4 2.4,3.9 6.3,-0.6 11.7,-2.4 4,-1.3 v -3.4 l 0.3,-5 z m -92.7,30.8 -3.8,4.1 0.9,5.6 6.1,2.4 7,4.5 7.3,1.7 6.8,-2.7 4.5,-0.6 3,-2.2 -2.5,-6.8 -2.5,-4 -4.1,-2.2 -5.6,-2.1 -7.8,0.7 z"
           id="path536"
           name="Chiayi" />
        <path
           style="stroke-linejoin:round"
           class="area"
           data-type="area"
           d="m 573.79996,836.49998 9.3,-1.6 7.8,-0.7 5.6,2.1 4.1,2.2 2.5,4 2.5,6.8 -3,2.2 -4.5,0.6 -6.8,2.7 -7.3,-1.7 -7,-4.5 -6.1,-2.4 -0.9,-5.6 z"
           id="path538"
           name="Chiayi City" />
        <path
           style="stroke-linejoin:round"
           class="area"
           data-type="area"
           d="m 935.39996,601.49998 0.6,0.8 1.6,2.9 0.2,1.1 -1.4,2.4 -5.8,5.7 -6.2,8.6 -4.7,3.7 -1.4,2 0.7,2.1 -0.9,1.5 -6.6,5.1 -2.5,2.4 -2.8,6 -2.9,12.2 -7.4,10.9 -1.5,4.4 0.2,4.7 1.8,5.2 1.5,2.3 1.3,1 0.8,1.4 0.1,3.2 -1.1,3.6 -3.7,5.8 -0.7,3.5 -0.4,6.4 -3.2,16.3 -6.4,17 -8,40.1 -4.8,9.8 -11,64.1 -3.5,-1 -10.8,5.2 -3.9,5.4 1.7,6.9 0.6,6.9 -3.6,6.9 -3.4,5.2 -2.7,6.6 -2.4,8.4 -3.7,7.7 -4.8,13.2 -3.1,6.1 0.1,6.7 -0.9,6.2 -6.5,3.7 -8.2,-1.1 -11.7,-9.7 -9.2,-16 -5.7,-1.5 -6.3,-0.9 -5,-4.8 -6.1,-2.9 -7.8,-2.8 -5,-8.1 -1.2,-7.4 -0.3,-2.5 -2.8,-7.6 -6.3,-5.2 -5.6,-3.6 -1,-4 1.4,-3.2 5.6,-2.4 3,-5 -1.9,-5.8 6,-3.5 3.1,-2.8 -1.7,-6.2 1.5,-2.7 1.5,-4 5.2,-3.9 7.4,-1.6 7.4,-0.3 5.3,-4.7 1.3,-8.5 4,-5.2 7.6,-2.8 4.5,-3.1 1.6,-5.1 3.2,-12.6 1.2,-8.4 -0.9,-7.2 -1.2,-5.4 -3.2,-4.1 -2.1,-4 5.7,-9.4 0.2,-3.7 2.5,-7 3.9,-8.5 3,-8.8 1.6,-9.9 0.6,-7.6 -1.8,-4.5 -2,-3.3 2.3,-7.6 5.1,-10.7 8,-10.4 0.3,-3.9 -1.5,-4.5 -5.2,-3.4 -2.9,-3.1 -0.2,-9.9 3.7,-2.9 6.6,-2.2 5.2,-2.4 -0.2,-3.7 -1.4,-6.2 2.8,-2 1.2,-2.1 3.4,-1.7 3.1,-3.8 1.3,-5.1 3,-5 7.5,-4.7 2.4,-6.2 0.4,-4.2 4.7,-4.9 2.5,2.1 6.5,3.1 15,3.8 8.3,3.2 h 6.5 l 4.9,-4.5 2.4,-6 3.8,-0.9 18.5,11.1 11.1,1.7 z"
           id="path540"
           name="Hualien" />
        <path
           style="stroke-linejoin:round"
           class="area"
           data-type="area"
           d="m 824.99996,627.59998 1.4,6.2 0.2,3.7 -5.2,2.4 -6.6,2.2 -3.7,2.9 0.2,9.9 2.9,3.1 5.2,3.4 1.5,4.5 -0.3,3.9 -8,10.4 -5.1,10.7 -2.3,7.6 2,3.3 1.8,4.5 -0.6,7.6 -1.6,9.9 -3,8.8 -3.9,8.5 -2.5,7 -0.2,3.7 -5.7,9.4 2.1,4 3.2,4.1 1.2,5.4 0.9,7.2 -1.2,8.4 -3.2,12.6 -1.6,5.1 -4.5,3.1 -7.6,2.8 -4,5.2 -1.3,8.5 -5.3,4.7 -7.4,0.3 -7.4,1.6 -5.2,3.9 -1.5,4 -1.5,2.7 1.7,6.2 -3.1,2.8 -6,3.5 -0.7,-2 -4.2,-5.9 -5.8,-2.2 -4.3,-1 -0.9,-0.2 -25.6,-0.2 -7.6,-1.4 -1.1,-3.8 -0.4,-5.9 -2.7,-6.5 -1.2,-4.8 3,-5.1 0.3,-5.3 -5.1,-2.8 -4.1,-1.2 -6.8,-2.6 -6.1,-0.7 -2.6,-3.5 -8.2,0.9 -6.8,2 -5.8,-2.5 -4,-4.7 0.9,-5.7 1.9,-5.2 -1,-7.7 1,-7.2 2,-4.7 -1.9,-7.2 2.4,-1.6 2.5,-2.3 3.8,-1.5 1,-3.5 -5.6,-2.9 -3.9,-1.4 -3.6,-3.3 -2.1,-6.3 0.9,-13.4 1.2,-6.6 0.1,-5.7 1.6,-5.4 2,-4.6 -0.5,-4 1.2,-2.9 4.3,-1.6 -0.1,-3.6 4.3,0.2 17.9,2.5 4.2,-0.6 5,-4.8 7.6,-14.4 3.7,-8.5 6.4,-3 10.1,1.4 6,-0.2 5.8,-7.7 3,-1.9 8.9,6.7 3.5,-0.9 2.6,-5.5 4.7,-3.9 6.6,0.1 5,-1.9 7.9,-7.6 5.1,-2.9 4.4,-0.8 8.8,-4.7 6.2,-0.2 6.3,-1 11.1,-4.4 4.6,-0.3 4.7,1 z"
           id="path542"
           name="Nantou" />
        <path
           style="stroke-linejoin:round"
           class="area"
           data-type="area"
           d="m 803.69996,570.49998 0.8,-0.6 10.6,-1 2.8,0.8 3.6,1 -0.6,5.5 1.4,3.8 4.9,1 4.4,2.6 3.7,2.5 4,-0.6 4.7,-2.3 h 4.9 l 5.9,4.7 -4.7,4.9 -0.4,4.2 -2.4,6.2 -7.5,4.7 -3,5 -1.3,5.1 -3.1,3.8 -3.4,1.7 -1.2,2.1 -2.8,2 -13.4,-1.3 -4.7,-1 -4.6,0.3 -11.1,4.4 -6.3,1 -6.2,0.2 -8.8,4.7 -4.4,0.8 -5.1,2.9 -7.9,7.6 -5,1.9 -6.6,-0.1 -4.7,3.9 -2.6,5.5 -3.5,0.9 -8.9,-6.7 -3,1.9 -5.8,7.7 -6,0.2 -10.1,-1.4 -6.4,3 -3.7,8.5 -7.6,14.4 -5,4.8 -4.2,0.6 -17.9,-2.5 -4.3,-0.2 v -1.4 l -5.4,-3.5 -4.3,-0.8 -1.2,-3.3 -0.1,-4 -2,-4 -3.2,-5 -4.3,-3.6 -11.9,-3.5 -4.5,-5.4 -1,-7.6 -2.7,-6.3 -4,-3.5 -5.8,-1.9 0.6,-0.8 0.8,-3.3 3.3,-2.7 2.2,-6.5 2.7,-12.3 9.3,-16.1 2.8,-9.9 3.4,-5.5 13.3,-14.8 9.2,14.3 4.7,5 6.3,5.5 15.1,11.1 7.3,3.6 6.6,1.2 11.6,6.7 12.1,-0.7 5.2,-2.8 0.9,-7.4 5.5,-3.3 9.9,0.8 6,2.4 5,5.6 5.4,2.1 8.9,-4.7 6.8,-2.9 11.6,-9.2 5.9,-3.2 4.6,-4.4 4.2,-3 5.3,0.1 4.9,-2 1.8,-5.6 z"
           id="path544"
           name="Taichung City" />
        <path
           style="stroke-linejoin:round"
           class="area"
           data-type="area"
           d="m 641.99996,760.19998 1.9,7.2 -2,4.7 -1,7.2 1,7.7 -1.9,5.2 -0.9,5.7 4,4.7 5.8,2.5 6.8,-2 8.2,-0.9 2.6,3.5 h -0.5 l -0.3,5 v 3.4 l -4,1.3 -11.7,2.4 -6.3,0.6 -2.4,-3.9 -4.7,-3.4 -8.3,2.4 -3.7,0.5 -12.6,-4.6 -5,-5.9 -5.3,-4.6 -6.9,0.4 -12.6,2.3 -7.2,2 -16.3,9.4 -3.8,3.8 -4.4,2.4 -7,5.7 -5.3,0.8 -2.1,3 -1.7,4.9 -3.9,3.2 -6.1,-0.1 -8.3,-4.7 -11.6,1.4 4.6,-5.2 -0.2,-16.4 0.7,-12.3 2.8,-9.8 4.3,-7.7 1.3,-10 2.3,-8.8 1.3,-3 6.1,-8.1 1.1,-2.8 0.7,-1.5 5.6,-4.3 0.8,-1.6 7.6,4.4 22,-2.6 7.6,0.4 6.6,1.8 11.6,4.4 19.7,2.3 12.2,6 5.8,-0.1 12,2.4 z"
           id="path546"
           name="Yunlin" />
        <path
           style="stroke-linejoin:round"
           class="area"
           data-type="area"
           d="m 889.19996,1263 -5.5,1.7 -7.3,-2.9 -6.8,-4.8 -3.9,-3.7 1.2,-2.7 -0.1,-2.5 -1,-2.4 -1.7,-2.1 h 19.5 v 1.8 l -1.3,3.5 -0.4,2.9 0.9,2.5 4.7,3.5 2,2.5 z m -24,-177.6 -0.1,1.1 -3.4,-0.4 -0.4,-0.6 -2.7,-1 -2.8,-4.9 -1.4,-4.3 0.6,-0.6 10,-0.7 1.1,0.6 0.8,2 -0.8,3.9 -0.9,1.6 -0.4,1.7 z m -163.1,114.1 -4.5,0.3 -10.2,-4.7 -4.6,-4.9 -3.2,-5.9 -0.6,-6.1 0.1,-5.7 -3.1,-4.4 -3.4,-1.7 -2.7,-3.9 0.5,-4.5 2.1,-3.9 5.3,-3.2 2.5,-3.8 -4.6,-5.6 -2.6,-5 v -5.4 l -1.1,-7.1 -2,-6.1 -1.2,-6.5 0.8,-14.7 3,-7.5 3.7,-6.6 2.4,-6.6 5.4,-4.5 7.6,-1.6 4.8,-2.7 9.8,-4.1 2,-5 0.1,-5.2 2.8,-13.8 -5.5,-3.6 -5.4,-1.3 -0.7,-4.9 -3.5,-6.6 3.9,-0.5 -1.2,-4.9 -6.2,-6.4 -3,-4.6 -1.3,-8.10002 2.3,-9.8 8.5,-7.2 4.3,-5.9 0.1,-11.2 3,-13.2 -2.1,-9.9 0.8,-6.9 7.4,-4 2.7,-4.9 -2.3,-6 0.9,-5.7 7.8,-5.1 4,-3.9 6.4,-4.1 15.6,-3.8 1.2,7.4 5,8.1 7.8,2.8 6.1,2.9 5,4.8 6.3,0.9 5.7,1.5 9.2,16 11.7,9.7 8.2,1.1 6.5,-3.7 0.9,-6.2 -0.1,-6.7 3.1,-6.1 4.8,-13.2 3.7,-7.7 2.4,-8.4 2.7,-6.6 3.4,-5.2 3.6,-6.9 -0.6,-6.9 -1.7,-6.9 3.9,-5.4 10.8,-5.2 3.5,1 -4.6,26.4 -2.2,4.9 -7.1,9.4 -2.6,4.9 -2.1,6.1 -1.5,11.4 0.2,10.2 -1,9.7 -4.9,9.9 -2.1,2.1 -4.7,3.5 -2.2,2.2 -1,2.3 -1.7,5.8 -4.8,8.4 -2.9,13.1 -2.1,5.9 -10.3,14.80002 -1.3,2.7 -13.9,11.8 -3.3,3.8 -0.4,2.7 0.6,6.2 -0.2,2.8 -1.2,3.2 -2.2,3.5 -4.7,6.1 -4.7,4.5 -16.1,10.7 -10.8,11.9 -2.7,1.4 -2.1,2.7 -5.2,13.5 -2.6,5 -8,10 -3.3,6 -1.9,12.3 -4.8,16.8 -9.5,16.7 -1.4,5.7 -1.7,16.1 z"
           id="path548"
           name="Taitung" />
        <path
           style="stroke-linejoin:round"
           class="area"
           data-type="area"
           d="m 320.69996,926.49998 -1.8,0.9 -1.3,-1.5 -1.5,-4.7 1,-1.2 3.8,-1.3 2.7,0.7 0.1,2.1 -0.2,1.6 -1.2,1.2 z m -1.2,-12 -1.7,3.1 -2.2,-0.6 -2,-2.5 -0.3,-2.5 1.2,-1.1 3.2,0.5 z m 48.8,-3.2 -0.4,0.1 -1.2,-1.5 0.3,-0.6 2.5,-0.2 0.8,2 z m 14,-4.6 0.3,0.2 h 2.3 v 1.3 l -1.1,1.5 -0.7,1.8 -1.1,-2.8 z m -33.5,-29.6 -1.7,0.1 -3,1.8 -0.4,-0.4 0.4,-1.3 1.1,-1.5 0.7,-0.6 1.6,-0.3 1.5,0.9 z m -8.4,-6.7 0.1,2.3 0.5,1.6 1.4,1.2 -0.6,1.6 -1.2,1.2 0.6,1.9 -1.5,0.6 -3.1,-0.3 -1.6,-0.7 1.4,-3.1 -0.2,-4.2 -0.9,0.6 -2,0.6 -0.6,-2.3 2.1,-5.1 1.6,-0.3 2.7,3.6 z m -49.5,-5.7 2.4,0.6 v 1.6 l -0.6,0.9 -2.1,0.6 -1.1,-1.1 z m 58.5,-24.8 -3.2,2.1 -2.1,0.6 -2.2,1.1 -1.3,-0.5 -0.3,-1.8 0.7,-0.6 1.8,0.5 4,-2 z m 19.5,-28 -0.6,1.3 4,-1.3 3.1,0.4 2.3,-0.2 1.6,-2.7 4.7,8.7 1.2,4 -0.5,3 -2,-2 -2.5,-1.7 -2.8,-0.5 -4,2.2 -2.8,0.3 -1.4,0.8 -0.7,1.5 -1.1,4.1 -0.7,1.2 -4.7,2.7 -4.8,0.7 -4.8,-1.9 -4.9,-4.9 1.3,-2.5 2.7,3.2 4,0.9 4.3,-1.2 3.5,-2.9 -2.4,-0.9 -2,-1.2 -1.5,-1.6 -1.4,-2.2 -0.8,1.4 -1,0.6 -0.3,-4 0.3,-4 h 1.8 l 2.1,0.5 7.4,-4.6 4.6,-1.6 z m -39.9,9.3 h -3.8 l 0.7,-2.1 1.2,-1.3 1.9,-0.5 2.5,-0.2 2.2,-0.9 0.6,-2 0.1,-4.8 3.2,-10.4 3.1,-3 4.2,3.6 -2.5,1.5 -1.7,3.6 -2.8,8.5 -0.1,2.2 0.7,2 -0.3,1.3 -3,0.5 -2.2,0.1 -1.5,0.3 -1.3,0.6 z m 33.8,-17.9 -2.2,0.7 -1.1,-1.5 -0.9,-3.5 -2,-2.9 -4.3,-4.3 5.5,-4.1 3.3,1.7 3.2,2.8 1.4,2.9 -2.5,2.4 1,3.5 z m 2.6,-30.4 -0.3,0.9 -1.3,-3 -0.2,-1.4 1.8,-1.5 1.6,-3 0.5,1.1 2.5,1.4 -0.4,1.8 -2.2,1.3 z"
           id="path550"
           name="Penghu" />
        <path
           style="stroke-linejoin:round"
           class="area"
           data-type="area"
           d="m 9.1999616,576.39998 -5.2,1.5 -3.00000005,-1.2 5.00000005,-9.9 1.3,-1.4 2.1,-0.5 2.1000004,-0.1 2,1.4 1.6,1.8 v 3.1 l -1.4,2.1 -1.6,0.1 -1.1,1.2 -0.6,1.2 z m 55.0000004,-26.8 4.7,12.6 -1,8.8 -3.9,4.6 -6.8,-4.3 -5,-1.6 -8.1,0.8 -7.1,4.5 -3.9,6.1 -3.4,1.7 -3.9,-1.9 -2.7,-0.1 -2.4,-1.1 -1.2,-2.1 0.5,-0.7 2.1,-2.8 0.7,-1.2 0.2,-2.1 -0.1,-2.5 -0.7,-4.3 -1.8,-4.2 -0.2,-2.1 1.5,-0.9 7.6,-3.7 10,6.6 7,-0.9 1.1,-8.7 2.3,-5.5 7.5,-1.5 z m 269.299998,-137.7 -2.9,1.5 -1.3,-1.2 0.7,-3.2 2.4,-1.4 1.7,0.3 0.2,1.9 z"
           id="path552"
           name="Kinmen" />
        <path
           style="stroke-linejoin:round"
           class="area"
           data-type="area"
           d="m 469.19996,123.89998 -0.2,2.3 -1.9,2.1 -4.1,2 2.5,-5.6 2.5,0.5 0.1,-0.9 z m -11.8,-0.8 -2,2.1 -2.4,-3.4 3.6,-1.3 2.7,1.5 z m -3.2,-54.900001 1,0.5 4.4,-2.6 h 2.8 v 1.8 l -2.8,3.2 -5.5,2.9 -1.7,0.3 -2.5,-1.7 -0.8,-2.4 0.5,-2.8 1.1,-2 1,-0.2 0.3,2.2 z m 21.3,-17.8 -0.6,2.2 0.6,1.2 -1.4,-0.2 -1.5,-2.2 -1.1,-0.7 -2.3,1.3 -1,-0.4 -1.3,0.3 -1.5,1.7 -1.2,5 -1.1,-0.7 -0.5,-1.5 0.5,-4.3 0.5,-1.6 1.1,-0.7 2.7,-0.9 0.7,-0.9 2.2,-1.3 2.5,0.4 1.3,1.9 z m 129.8,-45.6000001 -1.2,0.4 -1.1,-0.4 -1.4,1.3 -1.1,2.1 -0.3,-0.5 -1.2,-0.2 -1.8,-1 1.1,-1.7 -0.5,-1.4 0.9,-0.6 2.2,-1.80000003 2.6,1.50000003 0.6,1.3 z"
           id="path554"
           name="Lienchiang" />
        <circle
           style="stroke-linejoin:round"
           class="polt"
           data-type="plot"
           y="894"
           x="358"
           stroke-linejoin="round"
           stroke-width="0"
           stroke="#000000"
           fill="#ffa000"
           r="8"
           cx="893.99994"
           cy="357.99997"
           id="circle556" />
        <circle
           style="stroke-linejoin:round"
           class="polt"
           data-type="plot"
           x="669.9"
           y="526.1"
           stroke-linejoin="round"
           stroke-width="0"
           stroke="#000000"
           fill="#ffa000"
           r="8"
           cx="669.89996"
           cy="526.09998"
           id="circle558" />
        <circle
           style="stroke-linejoin:round"
           class="polt"
           data-type="plot"
           y="894"
           x="358"
           stroke-linejoin="round"
           stroke-width="0"
           stroke="#000000"
           fill="#ffa000"
           r="8"
           cx="569.69995"
           cy="1021.4"
           id="circle560" />
        <circle
           style="stroke-linejoin:round"
           class="polt"
           data-type="plot"
           y="894"
           x="358"
           stroke-linejoin="round"
           stroke-width="0"
           stroke="#000000"
           fill="#ffa000"
           r="8"
           cx="569.69995"
           cy="1021.4"
           id="circle562" />
      </g>
    </clipPath>
  </defs>
  <sodipodi:namedview
     fit-margin-bottom="0"
     fit-margin-right="0"
     fit-margin-left="0"
     fit-margin-top="0"
     inkscape:current-layer="g506"
     inkscape:window-maximized="1"
     inkscape:window-y="-8"
     inkscape:window-x="-8"
     inkscape:cy="403.22743"
     inkscape:cx="556.37055"
     inkscape:zoom="0.65637066"
     showgrid="false"
     id="namedview70"
     inkscape:window-height="1017"
     inkscape:window-width="1920"
     inkscape:pageshadow="2"
     inkscape:pageopacity="0"
     guidetolerance="10"
     gridtolerance="10"
     objecttolerance="10"
     borderopacity="1"
     bordercolor="#666666"
     pagecolor="#ffffff" />
  <g
     transform="translate(200.00004,52.500011)"
     clip-path="url(#clipPath508)"
     id="g506">
    <path
       style="stroke-linejoin:round"
       class="area"
       data-type="area"
       d="m 739.79996,857.29998 1.9,5.8 -3,5 -5.6,2.4 -1.4,3.2 1,4 5.6,3.6 6.3,5.2 2.8,7.6 0.3,2.5 -15.6,3.8 -6.4,4.1 -4,3.9 -7.8,5.1 -0.9,5.7 2.3,6 -2.7,4.9 -7.4,4 -0.8,6.9 2.1,9.9 -3,13.2 -0.1,11.2 -4.3,5.9 -8.5,7.2 -2.3,9.8 1.3,8.10002 3,4.6 6.2,6.4 1.2,4.9 -3.9,0.5 -5.2,-0.9 -4.3,0.2 -8.5,6.7 -5.9,-5.5 -7.6,-8.9 -7.2,1.8 -6.6,5.9 -13.1,-6.6 -9.4,4.5 -6.4,7.1 -8,2.8 -17.8,-1.1 -1.7,4.9 -1.3,7.2 -2.6,7.9 0.5,7 -0.1,9.5 -5.7,21.2 -0.1,7.1 2.7,7.5 0.4,8.2 -8.1,20.5 -2.6,-1.1 -1.6,0.1 -1.8,0.7 h -2.2 l -13,-10.2 -12.1,-17.1 12.7,15.4 -1.5,-7.4 -3.8,-7.2 -5.3,-6 -9,-8.4 -3.5,-4.2 -1.6,-4.8 2.2,-4.6 1.1,-4.1 -1.5,-5.8 -2.7,-5.6 -4.9,-7.7 -4.6,-10.2 -1,-4.5 0.1,-3 1.5,-3.6 0.3,-2.4 -0.5,-1.2 -2.7,-2.3 -0.5,-2.3 -2.9,-4.9 -0.7,-2 -2.1,-13.6 6.1,-3.70002 0.2,0.5 3.9,8.60002 4.8,2.5 15.7,2.2 8.2,-0.9 8.4,1 4.2,-1.5 3.5,-2.6 6.5,-2.6 6.3,-4.4 2.4,-5.50002 3,-5.2 5.3,-7.1 6.1,-6.4 6.5,-5.4 7.4,-7.2 6.5,-8.4 10,-17 10.4,-15.1 2.3,-6.6 -1,-6.7 -1.4,-4.5 0.1,-5 3.6,-3.5 6.9,0.7 5.8,-0.6 12.3,-7.3 4.5,-5.4 7.9,-6.1 7.7,-4.3 4.2,-5 3.6,-6.8 8.5,-6.8 18.5,-9.4 4.3,1 5.8,2.2 4.2,5.9 z"
       id="TWN1156"
       name="Kaohsiung City" />
    <path
       style="stroke-linejoin:round"
       class="area"
       data-type="area"
       d="m 569.39996,1166 2,2.9 -0.3,1 -2.7,1.8 -5,4.3 -0.9,-3.3 1.4,-2.7 2.8,-3.6 h 2 z m 126.7,-143.3 3.5,6.6 0.7,4.9 5.4,1.3 5.5,3.6 -2.8,13.8 -0.1,5.2 -2,5 -9.8,4.1 -4.8,2.7 -7.6,1.6 -5.4,4.5 -2.4,6.6 -3.7,6.6 -3,7.5 -0.8,14.7 1.2,6.5 2,6.1 1.1,7.1 v 5.4 l 2.6,5 4.6,5.6 -2.5,3.8 -5.3,3.2 -2.1,3.9 -0.5,4.5 2.7,3.9 3.4,1.7 3.1,4.4 -0.1,5.7 0.6,6.1 3.2,5.9 4.6,4.9 10.2,4.7 4.5,-0.3 0.9,51.6 -1.6,7.3 -2.5,6 -3.4,2.5 -4,3.7 0.1,8.3 1.5,9.2 -0.4,5.9 -4.5,-6.8 -6.8,-5.2 -7.8,-3.5 -8,-1.9 -0.3,6.6 -2.3,2.3 -3.4,-0.8 -3.7,-3.1 -0.2,-2.4 1.3,-7 -5.5,-9.2 -0.5,-2.4 0.1,-2.1 0.4,-3.2 v -10.8 l 0.5,-3.1 2.5,-3.6 0.5,-3 -19.9,-51.6 -1.6,-2.9 -5.5,-6.8 -4.4,-9.9 -2,-2.8 -8.2,-6.5 -5.4,-3 -0.9,-3.7 -0.7,-1.3 -4.4,-2.9 -10,-4.8 -4.5,-3.1 -4.8,-4.2 -2.6,-1.6 8.1,-20.5 -0.4,-8.2 -2.7,-7.5 0.1,-7.1 5.7,-21.2 0.1,-9.5 -0.5,-7 2.6,-7.9 1.3,-7.2 1.7,-4.9 17.8,1.1 8,-2.8 6.4,-7.1 9.4,-4.5 13.1,6.6 6.6,-5.9 7.2,-1.8 7.6,8.9 5.9,5.5 8.5,-6.7 4.3,-0.2 z"
       id="TWN1158"
       name="Pingtung" />
    <path
       style="stroke-linejoin:round"
       class="area"
       data-type="area"
       d="m 483.79996,968.29998 -0.6,1.2 -2.3,-2 -1.7,-4.2 0.3,-1.3 h 0.7 l 0.9,1.2 0.7,1.9 2.1,2.2 z m 0.5,-27.6 -2.9,6.8 3.9,-13.3 0.6,0.1 z m 3.5,-12.8 3.5,-9.9 0.5,-0.1 0.2,1.9 z m 6.3,-22.5 -0.4,2.4 0.6,-10.6 0.5,0.2 z m 149.5,11.5 -2.3,6.6 -10.4,15.1 -10,17 -6.5,8.4 -7.4,7.2 -6.5,5.4 -6.1,6.4 -5.3,7.1 -3,5.2 -2.4,5.50002 -6.3,4.4 -6.5,2.6 -3.5,2.6 -4.2,1.5 -8.4,-1 -8.2,0.9 -15.7,-2.2 -4.8,-2.5 -3.9,-8.60002 -0.2,-0.5 -6.1,3.70002 -1,-6.30002 -1.8,-3.6 -3.9,-3.9 4.7,-3.4 2.7,-6.1 -1.1,-5.2 -6.3,-0.9 -1.2,1.8 -1.1,3.4 -1.8,2.7 -3.3,-0.1 -1.3,-2.3 0.5,-7 -0.8,-2.4 -4.1,-1.8 -2.3,2.1 -1.8,2.9 -2.8,0.7 -2.9,-2.5 -0.7,-3.5 0.7,-3.4 1.1,-2.3 3,-1.6 3.7,-0.5 3.1,-1 1,-3 -1.4,-1.5 -9.4,-2.4 v -1.9 l 7.9,-0.1 -0.8,-2.6 -4.3,-3.7 -2.8,-3.2 0.7,-4 2.5,-1.5 2.7,-0.9 1.4,-2.5 -0.8,-3.9 -1.4,-3.2 0.9,-3 1.4,-3.7 2.3,-2.6 -0.5,-2.3 0.5,-2.3 3.3,-9 1.6,-1.7 2.6,-0.6 -3.7,-2.5 1.6,-4.1 5.2,2 8.9,1.3 7.2,1.8 6.2,-2.8 2.5,-4.9 5.8,-3.6 6.6,-5.1 4.7,-4.8 6.1,-4.6 7.8,-3.5 15.2,-2.8 8.5,-0.5 7.2,2.4 4,2.4 2.1,4.2 1.7,5.1 9.9,10.1 1,7.5 -1.8,14.2 1.6,4.6 4.5,3.5 h 3.8 l 5.3,-2.4 5,-0.6 3.7,1.1 z"
       id="TWN1160"
       name="Tainan City" />
    <path
       style="stroke-linejoin:round"
       class="area"
       data-type="area"
       d="m 724.29996,488.99998 -0.2,0.2 -4.6,1.1 -4.4,-1.7 -2.7,-3.8 -4.3,-2.6 -6.9,-2.7 1.2,-4.1 5.5,-11.4 2.2,-3 0.7,-1.5 v -1.7 l -0.7,-1.9 -1.1,-2.2 1.5,-3 1.8,-1.8 8.3,3.6 15.1,4.8 5.4,2.8 3.8,3.9 1.9,3.7 -1,3.6 -2.4,1.4 -5.1,0.9 -5.9,2.4 -3.4,4.3 -2.3,5.6 z"
       id="TWN1161"
       name="Hsinchu City" />
    <path
       style="stroke-linejoin:round"
       class="area"
       data-type="area"
       d="m 843.09996,523.59998 -2.3,6.5 -1.4,4.7 0.6,4.4 -3.8,5.8 -14,14.2 -4.3,10.5 -2.8,-0.8 -10.6,1 -0.8,0.6 -0.6,-4.9 -4.6,-7.8 -3.3,-3.3 -1.3,-4.4 -5,-4 -12.5,3.2 -4.8,-0.5 -6.8,0.5 -7.7,2.1 -4.1,-1 0.9,-5.1 1.3,-4.6 -1,-4 -1,-2.9 1,-3.1 0.8,-3.5 0.3,-3.9 -0.7,-5.2 -3.9,-3.4 -12.1,-5.7 -6,-4.5 -3.9,-4.4 -4.4,-11.1 2.4,-3.1 2.3,-5.6 3.4,-4.3 5.9,-2.4 5.1,-0.9 2.4,-1.4 1,-3.6 -1.9,-3.7 -3.8,-3.9 -5.4,-2.8 -15.1,-4.8 -8.3,-3.6 1.5,-2.3 0.6,-3.9 0.9,-2.9 2,-2.9 2.7,-2.1 2.5,-0.9 -0.2,-1.2 0.7,-2.9 2.2,-6.1 2.1,-3.3 3.1,1.1 13.7,-1 4.6,3.1 4,8.7 5,2 4.3,1.2 4.1,2 6.8,2.2 3.6,4.2 -1.1,5.8 3.5,3.7 6.5,2.1 4.2,3.1 3.1,3.1 3.8,0.7 3.9,-0.3 3.4,3.5 2.6,4.5 4.3,2.2 3.4,2.6 0.4,5 1.6,7.3 -1.9,7.8 -4.6,6.5 0.5,4.3 5.2,3.9 6.2,3.8 5.5,0.9 4,2.9 7.3,4.1 z"
       id="TWN1162"
       name="Hsinchu" />
    <path
       style="stroke-linejoin:round"
       class="area"
       data-type="area"
       d="m 982.39996,448.89998 2.1,0.5 1.6,2.2 -0.7,2.3 -3.8,-0.1 -1.4,-0.8 -1.7,-2.7 0.9,0.3 z m -47,152.6 h -1.1 l -11.1,-1.7 -18.5,-11.1 -3.8,0.9 -2.4,6 -4.9,4.5 h -6.5 l -8.3,-3.2 -15,-3.8 -6.5,-3.1 -2.5,-2.1 -5.9,-4.7 h -4.9 l -4.7,2.3 -4,0.6 -3.7,-2.5 -4.4,-2.6 -4.9,-1 -1.4,-3.8 0.6,-5.5 -3.6,-1 4.3,-10.5 14,-14.2 3.8,-5.8 -0.6,-4.4 1.4,-4.7 2.3,-6.5 0.5,-1.5 3.9,-1.6 3.3,0.6 3.4,-1.3 2.2,-3.8 -3.1,-12.4 5.4,-3.9 3.1,-0.9 5.7,-1.6 4.9,-1.8 3.8,-3.3 5,-3.5 6.6,-3.2 3.9,-2.8 -0.4,-2 -1,-3.2 -0.2,-4.2 2,-4.9 4.7,-4 3.8,-2.3 13,-5.3 13.5,-8.1 6.2,-1.9 5,-3.6 3.1,-5 3.3,-4.1 3.7,-2 3.5,-1.2 4.6,-2.9 1.6,-3.8 -2.5,-3.6 1.4,-2.9 11.2,-2.3 3.7,-2.5 8.4,-4.4 5.9,-1.3 3.3,1.9 0.8,1.1 -12,6 -5.5,4.7 -18.7,22.8 -2.9,4.8 -2.3,6.8 -1.6,7.7 -0.5,7.6 0.3,7.4 3.3,15.5 -0.2,4 -1.5,3.9 0.2,8.1 3.5,6.3 6.5,4 7.6,1.4 v 1.8 l -3.2,-0.3 -3.1,0.3 -2.6,0.8 -1.9,1.4 2.7,5 1.3,6.5 -0.8,5.6 -6,3.4 -0.4,2.5 0.7,3 1.7,2.7 0.6,2.8 -2.5,2.4 -6.2,3.6 -7,8 -0.3,3.2 0.5,7 -1.2,2.6 -1.3,2.3 -0.8,3.2 -0.5,6.4 -0.6,1.6 -1,1.3 -0.5,1.4 z"
       id="TWN1163"
       name="Yilan" />
    <path
       style="stroke-linejoin:round"
       class="area"
       data-type="area"
       d="m 934.79996,364.99998 -0.3,11.9 0.2,3 3.7,3.9 -0.4,2.5 -2.5,1.8 -4,1.5 -5.1,-0.6 -10.6,-4.4 -3,-2.2 -3.7,-3.4 -2.8,-3.5 -1.7,-3.5 -2.9,-3.7 -0.6,-2.9 3.2,-2.2 7.2,-3.1 4.4,-2.9 1.4,0.9 2.4,2.7 3.9,1.4 z"
       id="TWN1164"
       name="Keelung City" />
    <path
       style="stroke-linejoin:round"
       class="area"
       data-type="area"
       d="m 724.29996,488.99998 4.4,11.1 3.9,4.4 6,4.5 12.1,5.7 3.9,3.4 0.7,5.2 -0.3,3.9 -0.8,3.5 -1,3.1 1,2.9 1,4 -1.3,4.6 -0.9,5.1 4.1,1 7.7,-2.1 6.8,-0.5 4.8,0.5 12.5,-3.2 5,4 1.3,4.4 3.3,3.3 4.6,7.8 0.6,4.9 -3.7,2.6 -1.8,5.6 -4.9,2 -5.3,-0.1 -4.2,3 -4.6,4.4 -5.9,3.2 -11.6,9.2 -6.8,2.9 -8.9,4.7 -5.4,-2.1 -5,-5.6 -6,-2.4 -9.9,-0.8 -5.5,3.3 -0.9,7.4 -5.2,2.8 -12.1,0.7 -11.6,-6.7 -6.6,-1.2 -7.3,-3.6 -15.1,-11.1 -6.3,-5.5 -4.7,-5 -9.2,-14.3 7.2,-8.1 1.9,-4 0.9,-6.6 2.2,-5.6 5.9,-10.4 1.6,-6.3 1.5,-2.7 6.8,-2 1.9,-2.1 1.1,-2.6 1.4,-2.5 4.2,-4.3 4.6,-3.4 5.6,-1.5 7.1,1.3 -0.9,-5.4 2.7,-3.7 3.7,-3.8 1.9,-5.7 0.8,-1.9 3.6,-1.8 0.3,-1.3 6.9,2.7 4.3,2.6 2.7,3.8 4.4,1.7 4.6,-1.1 z"
       id="TWN1165"
       name="Miaoli" />
    <path
       style="stroke-linejoin:round"
       class="area"
       data-type="area"
       d="m 897.39996,413.19998 -4.2,1.7 -5.8,-0.1 -4.8,-1 -3.7,-3.3 -3.8,-4.3 -5.8,-4.6 -3.9,-6.7 1.5,-7.4 -1.2,-6.3 -5.7,-5.5 -3.8,-4.2 1.6,-3 1.8,-2.4 2.1,-4.6 3.6,-4 10.9,-6.4 2.9,-2.5 4,-2 3.8,1.2 2.1,2.2 -0.5,3.6 0.4,3.5 3.2,6.8 2.5,10 3.9,3.5 1.6,4.4 -1.6,6.6 0.1,5.1 4.6,2.6 3.8,3.2 -2,4.3 z"
       id="TWN1166"
       name="Taipei City" />
    <path
       style="stroke-linejoin:round"
       class="area"
       data-type="area"
       d="m 915.89996,357.19998 -4.4,2.9 -7.2,3.1 -3.2,2.2 0.6,2.9 2.9,3.7 1.7,3.5 2.8,3.5 3.7,3.4 3,2.2 10.6,4.4 5.1,0.6 4,-1.5 2.5,-1.8 0.4,-2.5 -3.7,-3.9 -0.2,-3 0.3,-11.9 34.6,8.4 3.2,2 -1.6,3.7 -0.4,2.9 0.7,5.2 2.4,8.7 2.6,4.1 2.2,0.9 7,-1 3.6,0.4 4.2,1.1 3.7,1.9 2,2.5 -8.7,4.3 -0.8,-1.1 -3.3,-1.9 -5.9,1.3 -8.4,4.4 -3.7,2.5 -11.2,2.3 -1.4,2.9 2.5,3.6 -1.6,3.8 -4.6,2.9 -3.5,1.2 -3.7,2 -3.3,4.1 -3.1,5 -5,3.6 -6.2,1.9 -13.5,8.1 -13,5.3 -3.8,2.3 -4.7,4 -2,4.9 0.2,4.2 1,3.2 0.4,2 -3.9,2.8 -6.6,3.2 -5,3.5 -3.8,3.3 -4.9,1.8 -5.7,1.6 -2.5,-5.4 -8.9,-8.5 -1.4,-5.6 -0.8,-5.2 3.1,-3.7 1.5,-5.3 -8.5,-12.3 -5,-2 -7.4,0.4 -5.1,-2.9 1.3,-6.7 -1,-5.1 -5.4,-5.1 -1,-5.1 1,-5.8 -0.2,-6.2 3.7,-4 13.1,-3.9 3.3,-3.4 1,-4.2 -0.5,-4.1 -5.1,-7.5 -4.2,-2.2 -4.1,-1 -3.2,-2.8 -4.7,-3.1 -6.3,-3 -4.2,-4.6 11.2,-2.1 4.8,-1.8 6.1,-5.2 1.9,-0.9 2.2,-0.4 h 3.1 l 3.5,1.1 1.9,2.7 1.2,2.7 1.5,1.6 3.5,-1.4 -3.6,-5.7 -5.8,-5.9 -3.1,-1.9 0.9,-2.7 1.8,-1.5 1.9,-0.9 0.8,-1 2.1,-5.1 3.2,-5.9 6.6,-5.9 9.6,-4.9 11,-2.5 10.8,1.2 4.5,3.4 10,14.2 3.6,7.4 1.2,-0.5 2.7,-0.7 3,-0.4 2.2,0.6 -0.1,0.9 -1.1,1.3 -1,1.8 0.1,2.2 1.1,1.2 z m -18.5,56 7.6,-9.6 2,-4.3 -3.8,-3.2 -4.6,-2.6 -0.1,-5.1 1.6,-6.6 -1.6,-4.4 -3.9,-3.5 -2.5,-10 -3.2,-6.8 -0.4,-3.5 0.5,-3.6 -2.1,-2.2 -3.8,-1.2 -4,2 -2.9,2.5 -10.9,6.4 -3.6,4 -2.1,4.6 -1.8,2.4 -1.6,3 3.8,4.2 5.7,5.5 1.2,6.3 -1.5,7.4 3.9,6.7 5.8,4.6 3.8,4.3 3.7,3.3 4.8,1 5.8,0.1 z"
       id="TWN1167"
       name="New Taipei City" />
    <path
       style="stroke-linejoin:round"
       class="area"
       data-type="area"
       d="m 861.79996,498.79998 -3.1,0.9 -5.4,3.9 3.1,12.4 -2.2,3.8 -3.4,1.3 -3.3,-0.6 -3.9,1.6 -0.5,1.5 -4.8,-2.2 -7.3,-4.1 -4,-2.9 -5.5,-0.9 -6.2,-3.8 -5.2,-3.9 -0.5,-4.3 4.6,-6.5 1.9,-7.8 -1.6,-7.3 -0.4,-5 -3.4,-2.6 -4.3,-2.2 -2.6,-4.5 -3.4,-3.5 -3.9,0.3 -3.8,-0.7 -3.1,-3.1 -4.2,-3.1 -6.5,-2.1 -3.5,-3.7 1.1,-5.8 -3.6,-4.2 -6.8,-2.2 -4.1,-2 -4.3,-1.2 -5,-2 -4,-8.7 -4.6,-3.1 -13.7,1 -3.1,-1.1 8.9,-14.2 6.9,-8.3 7.2,-6.1 18.4,-6.1 4.3,-2.7 3.7,-3.2 4.5,-2.5 9,-3.2 20.1,-3.6 4.2,4.6 6.3,3 4.7,3.1 3.2,2.8 4.1,1 4.2,2.2 5.1,7.5 0.5,4.1 -1,4.2 -3.3,3.4 -13.1,3.9 -3.7,4 0.2,6.2 -1,5.8 1,5.1 5.4,5.1 1,5.1 -1.3,6.7 5.1,2.9 7.4,-0.4 5,2 8.5,12.3 -1.5,5.3 -3.1,3.7 0.8,5.2 1.4,5.6 8.9,8.5 z"
       id="TWN1168"
       name="Taoyuan" />
    <path
       style="stroke-linejoin:round"
       class="area"
       data-type="area"
       d="m 647.19996,689.59998 0.1,3.6 -4.3,1.6 -1.2,2.9 0.5,4 -2,4.6 -1.6,5.4 -0.1,5.7 -1.2,6.6 -0.9,13.4 2.1,6.3 3.6,3.3 3.9,1.4 5.6,2.9 -1,3.5 -3.8,1.5 -2.5,2.3 -2.4,1.6 -1,0.7 -12,-2.4 -5.8,0.1 -12.2,-6 -19.7,-2.3 -11.6,-4.4 -6.6,-1.8 -7.6,-0.4 -22,2.6 -7.6,-4.4 0.8,-1.4 1.6,-7.1 1.2,-3 7.1,-6.8 2,-2.8 2.7,-7.8 4.2,-7.7 5.7,-16.1 2.7,-4.7 3,-3 2.5,-1.7 2.2,-1.1 1.6,-1.4 0.6,-3 1.2,-2.8 5.1,-4 1.2,-3 0.6,-10.1 0.9,-2.8 2.7,-2.6 11.3,-13.2 5.8,1.9 4,3.5 2.7,6.3 1,7.6 4.5,5.4 11.9,3.5 4.3,3.6 3.2,5 2,4 0.1,4 1.2,3.3 4.3,0.8 5.4,3.5 z"
       id="TWN1169"
       name="Changhua" />
    <path
       style="stroke-linejoin:round"
       class="area"
       data-type="area"
       d="m 499.59996,893.19998 -1.8,1.4 -0.4,-1.1 2.4,-3.1 0.9,-2.4 1.1,-1.5 0.6,0.5 0.1,1.1 -1.4,2 z m 2.2,-12.6 -0.7,-0.7 2,-3.8 0.9,-0.4 -0.5,1.9 z m 4.9,-9 -0.1,-4.4 0.5,0.4 0.1,2.9 z m 1.4,-9.7 -0.8,1.6 -0.5,-2 z m -1.3,-6.1 -0.5,1.3 -1.3,-2.1 z m -29.8,1 -3.2,1.6 3.8,-5.4 13.9,-14.1 10.6,-13.5 2.5,-0.8 -9,14.7 -4.5,4.5 -2.9,3.5 -3.8,3.8 -3,2.1 z m 189.5,-51.1 6.1,0.7 6.8,2.6 4.1,1.2 5.1,2.8 -0.3,5.3 -3,5.1 1.2,4.8 2.7,6.5 0.4,5.9 1.1,3.8 7.6,1.4 25.6,0.2 0.9,0.2 -18.5,9.4 -8.5,6.8 -3.6,6.8 -4.2,5 -7.7,4.3 -7.9,6.1 -4.5,5.4 -12.3,7.3 -5.8,0.6 -6.9,-0.7 -3.6,3.5 -0.1,5 1.4,4.5 1,6.7 -8.4,-1 -3.7,-1.1 -5,0.6 -5.3,2.4 h -3.8 l -4.5,-3.5 -1.6,-4.6 1.8,-14.2 -1,-7.5 -9.9,-10.1 -1.7,-5.1 -2.1,-4.2 -4,-2.4 -7.2,-2.4 -8.5,0.5 -15.2,2.8 -7.8,3.5 -6.1,4.6 -4.7,4.8 -6.6,5.1 -5.8,3.6 -2.5,4.9 -6.2,2.8 -7.2,-1.8 -8.9,-1.3 -5.2,-2 3.8,-0.3 3.3,-1.4 1.4,0.5 -0.9,-3.2 -2.2,1.6 -1.8,-0.5 -2.5,-0.1 v -3.3 l 2.4,-5.6 3.7,-0.3 5.4,0.1 -3.7,-10.5 -4.1,-8 1.9,-3.7 v -1.9 l -3.1,-1.5 0.4,-1.8 1.8,-2 0.9,-2.6 4,-5.2 -8.5,0.5 -0.2,-8.7 11.6,-1.4 8.3,4.7 6.1,0.1 3.9,-3.2 1.7,-4.9 2.1,-3 5.3,-0.8 7,-5.7 4.4,-2.4 3.8,-3.8 16.3,-9.4 7.2,-2 12.6,-2.3 6.9,-0.4 5.3,4.6 5,5.9 12.6,4.6 3.7,-0.5 8.3,-2.4 4.7,3.4 2.4,3.9 6.3,-0.6 11.7,-2.4 4,-1.3 v -3.4 l 0.3,-5 z m -92.7,30.8 -3.8,4.1 0.9,5.6 6.1,2.4 7,4.5 7.3,1.7 6.8,-2.7 4.5,-0.6 3,-2.2 -2.5,-6.8 -2.5,-4 -4.1,-2.2 -5.6,-2.1 -7.8,0.7 z"
       id="TWN1170"
       name="Chiayi" />
    <path
       style="stroke-linejoin:round"
       class="area"
       data-type="area"
       d="m 573.79996,836.49998 9.3,-1.6 7.8,-0.7 5.6,2.1 4.1,2.2 2.5,4 2.5,6.8 -3,2.2 -4.5,0.6 -6.8,2.7 -7.3,-1.7 -7,-4.5 -6.1,-2.4 -0.9,-5.6 z"
       id="TWN1171"
       name="Chiayi City" />
    <path
       style="stroke-linejoin:round"
       class="area"
       data-type="area"
       d="m 935.39996,601.49998 0.6,0.8 1.6,2.9 0.2,1.1 -1.4,2.4 -5.8,5.7 -6.2,8.6 -4.7,3.7 -1.4,2 0.7,2.1 -0.9,1.5 -6.6,5.1 -2.5,2.4 -2.8,6 -2.9,12.2 -7.4,10.9 -1.5,4.4 0.2,4.7 1.8,5.2 1.5,2.3 1.3,1 0.8,1.4 0.1,3.2 -1.1,3.6 -3.7,5.8 -0.7,3.5 -0.4,6.4 -3.2,16.3 -6.4,17 -8,40.1 -4.8,9.8 -11,64.1 -3.5,-1 -10.8,5.2 -3.9,5.4 1.7,6.9 0.6,6.9 -3.6,6.9 -3.4,5.2 -2.7,6.6 -2.4,8.4 -3.7,7.7 -4.8,13.2 -3.1,6.1 0.1,6.7 -0.9,6.2 -6.5,3.7 -8.2,-1.1 -11.7,-9.7 -9.2,-16 -5.7,-1.5 -6.3,-0.9 -5,-4.8 -6.1,-2.9 -7.8,-2.8 -5,-8.1 -1.2,-7.4 -0.3,-2.5 -2.8,-7.6 -6.3,-5.2 -5.6,-3.6 -1,-4 1.4,-3.2 5.6,-2.4 3,-5 -1.9,-5.8 6,-3.5 3.1,-2.8 -1.7,-6.2 1.5,-2.7 1.5,-4 5.2,-3.9 7.4,-1.6 7.4,-0.3 5.3,-4.7 1.3,-8.5 4,-5.2 7.6,-2.8 4.5,-3.1 1.6,-5.1 3.2,-12.6 1.2,-8.4 -0.9,-7.2 -1.2,-5.4 -3.2,-4.1 -2.1,-4 5.7,-9.4 0.2,-3.7 2.5,-7 3.9,-8.5 3,-8.8 1.6,-9.9 0.6,-7.6 -1.8,-4.5 -2,-3.3 2.3,-7.6 5.1,-10.7 8,-10.4 0.3,-3.9 -1.5,-4.5 -5.2,-3.4 -2.9,-3.1 -0.2,-9.9 3.7,-2.9 6.6,-2.2 5.2,-2.4 -0.2,-3.7 -1.4,-6.2 2.8,-2 1.2,-2.1 3.4,-1.7 3.1,-3.8 1.3,-5.1 3,-5 7.5,-4.7 2.4,-6.2 0.4,-4.2 4.7,-4.9 2.5,2.1 6.5,3.1 15,3.8 8.3,3.2 h 6.5 l 4.9,-4.5 2.4,-6 3.8,-0.9 18.5,11.1 11.1,1.7 z"
       id="TWN1172"
       name="Hualien" />
    <path
       style="stroke-linejoin:round"
       class="area"
       data-type="area"
       d="m 824.99996,627.59998 1.4,6.2 0.2,3.7 -5.2,2.4 -6.6,2.2 -3.7,2.9 0.2,9.9 2.9,3.1 5.2,3.4 1.5,4.5 -0.3,3.9 -8,10.4 -5.1,10.7 -2.3,7.6 2,3.3 1.8,4.5 -0.6,7.6 -1.6,9.9 -3,8.8 -3.9,8.5 -2.5,7 -0.2,3.7 -5.7,9.4 2.1,4 3.2,4.1 1.2,5.4 0.9,7.2 -1.2,8.4 -3.2,12.6 -1.6,5.1 -4.5,3.1 -7.6,2.8 -4,5.2 -1.3,8.5 -5.3,4.7 -7.4,0.3 -7.4,1.6 -5.2,3.9 -1.5,4 -1.5,2.7 1.7,6.2 -3.1,2.8 -6,3.5 -0.7,-2 -4.2,-5.9 -5.8,-2.2 -4.3,-1 -0.9,-0.2 -25.6,-0.2 -7.6,-1.4 -1.1,-3.8 -0.4,-5.9 -2.7,-6.5 -1.2,-4.8 3,-5.1 0.3,-5.3 -5.1,-2.8 -4.1,-1.2 -6.8,-2.6 -6.1,-0.7 -2.6,-3.5 -8.2,0.9 -6.8,2 -5.8,-2.5 -4,-4.7 0.9,-5.7 1.9,-5.2 -1,-7.7 1,-7.2 2,-4.7 -1.9,-7.2 2.4,-1.6 2.5,-2.3 3.8,-1.5 1,-3.5 -5.6,-2.9 -3.9,-1.4 -3.6,-3.3 -2.1,-6.3 0.9,-13.4 1.2,-6.6 0.1,-5.7 1.6,-5.4 2,-4.6 -0.5,-4 1.2,-2.9 4.3,-1.6 -0.1,-3.6 4.3,0.2 17.9,2.5 4.2,-0.6 5,-4.8 7.6,-14.4 3.7,-8.5 6.4,-3 10.1,1.4 6,-0.2 5.8,-7.7 3,-1.9 8.9,6.7 3.5,-0.9 2.6,-5.5 4.7,-3.9 6.6,0.1 5,-1.9 7.9,-7.6 5.1,-2.9 4.4,-0.8 8.8,-4.7 6.2,-0.2 6.3,-1 11.1,-4.4 4.6,-0.3 4.7,1 z"
       id="TWN1173"
       name="Nantou" />
    <path
       style="stroke-linejoin:round"
       class="area"
       data-type="area"
       d="m 803.69996,570.49998 0.8,-0.6 10.6,-1 2.8,0.8 3.6,1 -0.6,5.5 1.4,3.8 4.9,1 4.4,2.6 3.7,2.5 4,-0.6 4.7,-2.3 h 4.9 l 5.9,4.7 -4.7,4.9 -0.4,4.2 -2.4,6.2 -7.5,4.7 -3,5 -1.3,5.1 -3.1,3.8 -3.4,1.7 -1.2,2.1 -2.8,2 -13.4,-1.3 -4.7,-1 -4.6,0.3 -11.1,4.4 -6.3,1 -6.2,0.2 -8.8,4.7 -4.4,0.8 -5.1,2.9 -7.9,7.6 -5,1.9 -6.6,-0.1 -4.7,3.9 -2.6,5.5 -3.5,0.9 -8.9,-6.7 -3,1.9 -5.8,7.7 -6,0.2 -10.1,-1.4 -6.4,3 -3.7,8.5 -7.6,14.4 -5,4.8 -4.2,0.6 -17.9,-2.5 -4.3,-0.2 v -1.4 l -5.4,-3.5 -4.3,-0.8 -1.2,-3.3 -0.1,-4 -2,-4 -3.2,-5 -4.3,-3.6 -11.9,-3.5 -4.5,-5.4 -1,-7.6 -2.7,-6.3 -4,-3.5 -5.8,-1.9 0.6,-0.8 0.8,-3.3 3.3,-2.7 2.2,-6.5 2.7,-12.3 9.3,-16.1 2.8,-9.9 3.4,-5.5 13.3,-14.8 9.2,14.3 4.7,5 6.3,5.5 15.1,11.1 7.3,3.6 6.6,1.2 11.6,6.7 12.1,-0.7 5.2,-2.8 0.9,-7.4 5.5,-3.3 9.9,0.8 6,2.4 5,5.6 5.4,2.1 8.9,-4.7 6.8,-2.9 11.6,-9.2 5.9,-3.2 4.6,-4.4 4.2,-3 5.3,0.1 4.9,-2 1.8,-5.6 z"
       id="TWN1174"
       name="Taichung City" />
    <path
       style="stroke-linejoin:round"
       class="area"
       data-type="area"
       d="m 641.99996,760.19998 1.9,7.2 -2,4.7 -1,7.2 1,7.7 -1.9,5.2 -0.9,5.7 4,4.7 5.8,2.5 6.8,-2 8.2,-0.9 2.6,3.5 h -0.5 l -0.3,5 v 3.4 l -4,1.3 -11.7,2.4 -6.3,0.6 -2.4,-3.9 -4.7,-3.4 -8.3,2.4 -3.7,0.5 -12.6,-4.6 -5,-5.9 -5.3,-4.6 -6.9,0.4 -12.6,2.3 -7.2,2 -16.3,9.4 -3.8,3.8 -4.4,2.4 -7,5.7 -5.3,0.8 -2.1,3 -1.7,4.9 -3.9,3.2 -6.1,-0.1 -8.3,-4.7 -11.6,1.4 4.6,-5.2 -0.2,-16.4 0.7,-12.3 2.8,-9.8 4.3,-7.7 1.3,-10 2.3,-8.8 1.3,-3 6.1,-8.1 1.1,-2.8 0.7,-1.5 5.6,-4.3 0.8,-1.6 7.6,4.4 22,-2.6 7.6,0.4 6.6,1.8 11.6,4.4 19.7,2.3 12.2,6 5.8,-0.1 12,2.4 z"
       id="TWN1176"
       name="Yunlin" />
    <path
       style="stroke-linejoin:round"
       class="area"
       data-type="area"
       d="m 889.19996,1263 -5.5,1.7 -7.3,-2.9 -6.8,-4.8 -3.9,-3.7 1.2,-2.7 -0.1,-2.5 -1,-2.4 -1.7,-2.1 h 19.5 v 1.8 l -1.3,3.5 -0.4,2.9 0.9,2.5 4.7,3.5 2,2.5 z m -24,-177.6 -0.1,1.1 -3.4,-0.4 -0.4,-0.6 -2.7,-1 -2.8,-4.9 -1.4,-4.3 0.6,-0.6 10,-0.7 1.1,0.6 0.8,2 -0.8,3.9 -0.9,1.6 -0.4,1.7 z m -163.1,114.1 -4.5,0.3 -10.2,-4.7 -4.6,-4.9 -3.2,-5.9 -0.6,-6.1 0.1,-5.7 -3.1,-4.4 -3.4,-1.7 -2.7,-3.9 0.5,-4.5 2.1,-3.9 5.3,-3.2 2.5,-3.8 -4.6,-5.6 -2.6,-5 v -5.4 l -1.1,-7.1 -2,-6.1 -1.2,-6.5 0.8,-14.7 3,-7.5 3.7,-6.6 2.4,-6.6 5.4,-4.5 7.6,-1.6 4.8,-2.7 9.8,-4.1 2,-5 0.1,-5.2 2.8,-13.8 -5.5,-3.6 -5.4,-1.3 -0.7,-4.9 -3.5,-6.6 3.9,-0.5 -1.2,-4.9 -6.2,-6.4 -3,-4.6 -1.3,-8.10002 2.3,-9.8 8.5,-7.2 4.3,-5.9 0.1,-11.2 3,-13.2 -2.1,-9.9 0.8,-6.9 7.4,-4 2.7,-4.9 -2.3,-6 0.9,-5.7 7.8,-5.1 4,-3.9 6.4,-4.1 15.6,-3.8 1.2,7.4 5,8.1 7.8,2.8 6.1,2.9 5,4.8 6.3,0.9 5.7,1.5 9.2,16 11.7,9.7 8.2,1.1 6.5,-3.7 0.9,-6.2 -0.1,-6.7 3.1,-6.1 4.8,-13.2 3.7,-7.7 2.4,-8.4 2.7,-6.6 3.4,-5.2 3.6,-6.9 -0.6,-6.9 -1.7,-6.9 3.9,-5.4 10.8,-5.2 3.5,1 -4.6,26.4 -2.2,4.9 -7.1,9.4 -2.6,4.9 -2.1,6.1 -1.5,11.4 0.2,10.2 -1,9.7 -4.9,9.9 -2.1,2.1 -4.7,3.5 -2.2,2.2 -1,2.3 -1.7,5.8 -4.8,8.4 -2.9,13.1 -2.1,5.9 -10.3,14.80002 -1.3,2.7 -13.9,11.8 -3.3,3.8 -0.4,2.7 0.6,6.2 -0.2,2.8 -1.2,3.2 -2.2,3.5 -4.7,6.1 -4.7,4.5 -16.1,10.7 -10.8,11.9 -2.7,1.4 -2.1,2.7 -5.2,13.5 -2.6,5 -8,10 -3.3,6 -1.9,12.3 -4.8,16.8 -9.5,16.7 -1.4,5.7 -1.7,16.1 z"
       id="TWN1177"
       name="Taitung" />
    <path
       style="stroke-linejoin:round"
       class="area"
       data-type="area"
       d="m 320.69996,926.49998 -1.8,0.9 -1.3,-1.5 -1.5,-4.7 1,-1.2 3.8,-1.3 2.7,0.7 0.1,2.1 -0.2,1.6 -1.2,1.2 z m -1.2,-12 -1.7,3.1 -2.2,-0.6 -2,-2.5 -0.3,-2.5 1.2,-1.1 3.2,0.5 z m 48.8,-3.2 -0.4,0.1 -1.2,-1.5 0.3,-0.6 2.5,-0.2 0.8,2 z m 14,-4.6 0.3,0.2 h 2.3 v 1.3 l -1.1,1.5 -0.7,1.8 -1.1,-2.8 z m -33.5,-29.6 -1.7,0.1 -3,1.8 -0.4,-0.4 0.4,-1.3 1.1,-1.5 0.7,-0.6 1.6,-0.3 1.5,0.9 z m -8.4,-6.7 0.1,2.3 0.5,1.6 1.4,1.2 -0.6,1.6 -1.2,1.2 0.6,1.9 -1.5,0.6 -3.1,-0.3 -1.6,-0.7 1.4,-3.1 -0.2,-4.2 -0.9,0.6 -2,0.6 -0.6,-2.3 2.1,-5.1 1.6,-0.3 2.7,3.6 z m -49.5,-5.7 2.4,0.6 v 1.6 l -0.6,0.9 -2.1,0.6 -1.1,-1.1 z m 58.5,-24.8 -3.2,2.1 -2.1,0.6 -2.2,1.1 -1.3,-0.5 -0.3,-1.8 0.7,-0.6 1.8,0.5 4,-2 z m 19.5,-28 -0.6,1.3 4,-1.3 3.1,0.4 2.3,-0.2 1.6,-2.7 4.7,8.7 1.2,4 -0.5,3 -2,-2 -2.5,-1.7 -2.8,-0.5 -4,2.2 -2.8,0.3 -1.4,0.8 -0.7,1.5 -1.1,4.1 -0.7,1.2 -4.7,2.7 -4.8,0.7 -4.8,-1.9 -4.9,-4.9 1.3,-2.5 2.7,3.2 4,0.9 4.3,-1.2 3.5,-2.9 -2.4,-0.9 -2,-1.2 -1.5,-1.6 -1.4,-2.2 -0.8,1.4 -1,0.6 -0.3,-4 0.3,-4 h 1.8 l 2.1,0.5 7.4,-4.6 4.6,-1.6 z m -39.9,9.3 h -3.8 l 0.7,-2.1 1.2,-1.3 1.9,-0.5 2.5,-0.2 2.2,-0.9 0.6,-2 0.1,-4.8 3.2,-10.4 3.1,-3 4.2,3.6 -2.5,1.5 -1.7,3.6 -2.8,8.5 -0.1,2.2 0.7,2 -0.3,1.3 -3,0.5 -2.2,0.1 -1.5,0.3 -1.3,0.6 z m 33.8,-17.9 -2.2,0.7 -1.1,-1.5 -0.9,-3.5 -2,-2.9 -4.3,-4.3 5.5,-4.1 3.3,1.7 3.2,2.8 1.4,2.9 -2.5,2.4 1,3.5 z m 2.6,-30.4 -0.3,0.9 -1.3,-3 -0.2,-1.4 1.8,-1.5 1.6,-3 0.5,1.1 2.5,1.4 -0.4,1.8 -2.2,1.3 z"
       id="TWN3414"
       name="Penghu" />
    <path
       style="stroke-linejoin:round"
       class="area"
       data-type="area"
       d="m 9.1999616,576.39998 -5.2,1.5 -3.00000005,-1.2 5.00000005,-9.9 1.3,-1.4 2.1,-0.5 2.1000004,-0.1 2,1.4 1.6,1.8 v 3.1 l -1.4,2.1 -1.6,0.1 -1.1,1.2 -0.6,1.2 z m 55.0000004,-26.8 4.7,12.6 -1,8.8 -3.9,4.6 -6.8,-4.3 -5,-1.6 -8.1,0.8 -7.1,4.5 -3.9,6.1 -3.4,1.7 -3.9,-1.9 -2.7,-0.1 -2.4,-1.1 -1.2,-2.1 0.5,-0.7 2.1,-2.8 0.7,-1.2 0.2,-2.1 -0.1,-2.5 -0.7,-4.3 -1.8,-4.2 -0.2,-2.1 1.5,-0.9 7.6,-3.7 10,6.6 7,-0.9 1.1,-8.7 2.3,-5.5 7.5,-1.5 z m 269.299998,-137.7 -2.9,1.5 -1.3,-1.2 0.7,-3.2 2.4,-1.4 1.7,0.3 0.2,1.9 z"
       id="TWN3415"
       name="Kinmen" />
    <path
       style="stroke-linejoin:round"
       class="area"
       data-type="area"
       d="m 469.19996,123.89998 -0.2,2.3 -1.9,2.1 -4.1,2 2.5,-5.6 2.5,0.5 0.1,-0.9 z m -11.8,-0.8 -2,2.1 -2.4,-3.4 3.6,-1.3 2.7,1.5 z m -3.2,-54.900001 1,0.5 4.4,-2.6 h 2.8 v 1.8 l -2.8,3.2 -5.5,2.9 -1.7,0.3 -2.5,-1.7 -0.8,-2.4 0.5,-2.8 1.1,-2 1,-0.2 0.3,2.2 z m 21.3,-17.8 -0.6,2.2 0.6,1.2 -1.4,-0.2 -1.5,-2.2 -1.1,-0.7 -2.3,1.3 -1,-0.4 -1.3,0.3 -1.5,1.7 -1.2,5 -1.1,-0.7 -0.5,-1.5 0.5,-4.3 0.5,-1.6 1.1,-0.7 2.7,-0.9 0.7,-0.9 2.2,-1.3 2.5,0.4 1.3,1.9 z m 129.8,-45.6000001 -1.2,0.4 -1.1,-0.4 -1.4,1.3 -1.1,2.1 -0.3,-0.5 -1.2,-0.2 -1.8,-1 1.1,-1.7 -0.5,-1.4 0.9,-0.6 2.2,-1.80000003 2.6,1.50000003 0.6,1.3 z"
       id="TWN5128"
       name="Lienchiang" />
    <circle
       style="stroke-linejoin:round"
       class="polt"
       data-type="plot"
       y="894"
       x="358"
       stroke-linejoin="round"
       stroke-width="0"
       stroke="#000000"
       fill="#ffa000"
       r="8"
       cx="893.99994"
       cy="357.99997"
       id="0" />
    <circle
       style="stroke-linejoin:round"
       class="polt"
       data-type="plot"
       x="669.9"
       y="526.1"
       stroke-linejoin="round"
       stroke-width="0"
       stroke="#000000"
       fill="#ffa000"
       r="8"
       cx="669.89996"
       cy="526.09998"
       id="1" />
    <circle
       style="stroke-linejoin:round"
       class="polt"
       data-type="plot"
       y="894"
       x="358"
       stroke-linejoin="round"
       stroke-width="0"
       stroke="#000000"
       fill="#ffa000"
       r="8"
       cx="569.69995"
       cy="1021.4"
       id="3" />
    <circle
       style="stroke-linejoin:round"
       class="polt"
       data-type="plot"
       y="894"
       x="358"
       stroke-linejoin="round"
       stroke-width="0"
       stroke="#000000"
       fill="#ffa000"
       r="8"
       cx="569.69995"
       cy="1021.4"
       id="2" />
  </g>
  <g
     transform="translate(-3.8443638e-5,-2.1139918e-5)"
     inkscape:label="Layer 1"
     id="layer1"
     inkscape:groupmode="layer" />
</svg>
