<?xml version="1.0" encoding="UTF-8" standalone="no"?>
<svg
   xmlns:dc="http://purl.org/dc/elements/1.1/"
   xmlns:cc="http://creativecommons.org/ns#"
   xmlns:rdf="http://www.w3.org/1999/02/22-rdf-syntax-ns#"
   xmlns:svg="http://www.w3.org/2000/svg"
   xmlns="http://www.w3.org/2000/svg"
   xmlns:sodipodi="http://sodipodi.sourceforge.net/DTD/sodipodi-0.dtd"
   xmlns:inkscape="http://www.inkscape.org/namespaces/inkscape"
   inkscape:version="1.0 (4035a4fb49, 2020-05-01)"
   sodipodi:docname="demo_twmap_dot1.svg"
   id="svg27"
   width="1000"
   viewbox="0 0 1000 1295"
   version="1.2"
   stroke-width="2"
   stroke-linejoin="round"
   stroke-linecap="round"
   stroke="#ffffff"
   height="1295"
   fill="#7c7c7c"
   baseprofile="tiny">

   <path
      name="Kaohsiung City"
      id="TWN1156"
      d="M739.8 857.3l1.9 5.8-3 5-5.6 2.4-1.4 3.2 1 4 5.6 3.6 6.3 5.2 2.8 7.6 0.3 2.5-15.6 3.8-6.4 4.1-4 3.9-7.8 5.1-0.9 5.7 2.3 6-2.7 4.9-7.4 4-0.8 6.9 2.1 9.9-3 13.2-0.1 11.2-4.3 5.9-8.5 7.2-2.3 9.8 1.3 8.1 3 4.6 6.2 6.4 1.2 4.9-3.9 0.5-5.2-0.9-4.3 0.2-8.5 6.7-5.9-5.5-7.6-8.9-7.2 1.8-6.6 5.9-13.1-6.6-9.4 4.5-6.4 7.1-8 2.8-17.8-1.1-1.7 4.9-1.3 7.2-2.6 7.9 0.5 7-0.1 9.5-5.7 21.2-0.1 7.1 2.7 7.5 0.4 8.2-8.1 20.5-2.6-1.1-1.6 0.1-1.8 0.7-2.2 0-13-10.2-12.1-17.1 12.7 15.4-1.5-7.4-3.8-7.2-5.3-6-9-8.4-3.5-4.2-1.6-4.8 2.2-4.6 1.1-4.1-1.5-5.8-2.7-5.6-4.9-7.7-4.6-10.2-1-4.5 0.1-3 1.5-3.6 0.3-2.4-0.5-1.2-2.7-2.3-0.5-2.3-2.9-4.9-0.7-2-2.1-13.6 6.1-3.7 0.2 0.5 3.9 8.6 4.8 2.5 15.7 2.2 8.2-0.9 8.4 1 4.2-1.5 3.5-2.6 6.5-2.6 6.3-4.4 2.4-5.5 3-5.2 5.3-7.1 6.1-6.4 6.5-5.4 7.4-7.2 6.5-8.4 10-17 10.4-15.1 2.3-6.6-1-6.7-1.4-4.5 0.1-5 3.6-3.5 6.9 0.7 5.8-0.6 12.3-7.3 4.5-5.4 7.9-6.1 7.7-4.3 4.2-5 3.6-6.8 8.5-6.8 18.5-9.4 4.3 1 5.8 2.2 4.2 5.9 0.7 2z"
      data-type="area" class="area" style="-webkit-tap-highlight-color: rgba(0, 0, 0, 0); stroke-linejoin: round; cursor: pointer;" />
   <path
      name="Pingtung"
      id="TWN1158"
      d="M569.4 1166l2 2.9-0.3 1-2.7 1.8-5 4.3-0.9-3.3 1.4-2.7 2.8-3.6 2 0 0.7-0.4z m126.7-143.3l3.5 6.6 0.7 4.9 5.4 1.3 5.5 3.6-2.8 13.8-0.1 5.2-2 5-9.8 4.1-4.8 2.7-7.6 1.6-5.4 4.5-2.4 6.6-3.7 6.6-3 7.5-0.8 14.7 1.2 6.5 2 6.1 1.1 7.1 0 5.4 2.6 5 4.6 5.6-2.5 3.8-5.3 3.2-2.1 3.9-0.5 4.5 2.7 3.9 3.4 1.7 3.1 4.4-0.1 5.7 0.6 6.1 3.2 5.9 4.6 4.9 10.2 4.7 4.5-0.3 0.9 51.6-1.6 7.3-2.5 6-3.4 2.5-4 3.7 0.1 8.3 1.5 9.2-0.4 5.9-4.5-6.8-6.8-5.2-7.8-3.5-8-1.9-0.3 6.6-2.3 2.3-3.4-0.8-3.7-3.1-0.2-2.4 1.3-7-5.5-9.2-0.5-2.4 0.1-2.1 0.4-3.2 0-10.8 0.5-3.1 2.5-3.6 0.5-3-19.9-51.6-1.6-2.9-5.5-6.8-4.4-9.9-2-2.8-8.2-6.5-5.4-3-0.9-3.7-0.7-1.3-4.4-2.9-10-4.8-4.5-3.1-4.8-4.2-2.6-1.6 8.1-20.5-0.4-8.2-2.7-7.5 0.1-7.1 5.7-21.2 0.1-9.5-0.5-7 2.6-7.9 1.3-7.2 1.7-4.9 17.8 1.1 8-2.8 6.4-7.1 9.4-4.5 13.1 6.6 6.6-5.9 7.2-1.8 7.6 8.9 5.9 5.5 8.5-6.7 4.3-0.2 5.2 0.9z" 
      data-type="area" class="area" style="-webkit-tap-highlight-color: rgba(0, 0, 0, 0); stroke-linejoin: round; cursor: pointer;"/>
   <path
      name="Tainan City"
      id="TWN1160"
      d="M483.8 968.3l-0.6 1.2-2.3-2-1.7-4.2 0.3-1.3 0.7 0 0.9 1.2 0.7 1.9 2.1 2.2-0.1 1z m0.5-27.6l-2.9 6.8 3.9-13.3 0.6 0.1-1.6 6.4z m3.5-12.8l3.5-9.9 0.5-0.1 0.2 1.9-4.2 8.1z m6.3-22.5l-0.4 2.4 0.6-10.6 0.5 0.2-0.7 8z m149.5 11.5l-2.3 6.6-10.4 15.1-10 17-6.5 8.4-7.4 7.2-6.5 5.4-6.1 6.4-5.3 7.1-3 5.2-2.4 5.5-6.3 4.4-6.5 2.6-3.5 2.6-4.2 1.5-8.4-1-8.2 0.9-15.7-2.2-4.8-2.5-3.9-8.6-0.2-0.5-6.1 3.7-1-6.3-1.8-3.6-3.9-3.9 4.7-3.4 2.7-6.1-1.1-5.2-6.3-0.9-1.2 1.8-1.1 3.4-1.8 2.7-3.3-0.1-1.3-2.3 0.5-7-0.8-2.4-4.1-1.8-2.3 2.1-1.8 2.9-2.8 0.7-2.9-2.5-0.7-3.5 0.7-3.4 1.1-2.3 3-1.6 3.7-0.5 3.1-1 1-3-1.4-1.5-9.4-2.4 0-1.9 7.9-0.1-0.8-2.6-4.3-3.7-2.8-3.2 0.7-4 2.5-1.5 2.7-0.9 1.4-2.5-0.8-3.9-1.4-3.2 0.9-3 1.4-3.7 2.3-2.6-0.5-2.3 0.5-2.3 3.3-9 1.6-1.7 2.6-0.6-3.7-2.5 1.6-4.1 5.2 2 8.9 1.3 7.2 1.8 6.2-2.8 2.5-4.9 5.8-3.6 6.6-5.1 4.7-4.8 6.1-4.6 7.8-3.5 15.2-2.8 8.5-0.5 7.2 2.4 4 2.4 2.1 4.2 1.7 5.1 9.9 10.1 1 7.5-1.8 14.2 1.6 4.6 4.5 3.5 3.8 0 5.3-2.4 5-0.6 3.7 1.1 8.4 1z"
      data-type="area" class="area" style="-webkit-tap-highlight-color: rgba(0, 0, 0, 0); stroke-linejoin: round; cursor: pointer;"/>
   <path
      name="Hsinchu City"
      id="TWN1161"
      d="M724.3 489l-0.2 0.2-4.6 1.1-4.4-1.7-2.7-3.8-4.3-2.6-6.9-2.7 1.2-4.1 5.5-11.4 2.2-3 0.7-1.5 0-1.7-0.7-1.9-1.1-2.2 1.5-3 1.8-1.8 8.3 3.6 15.1 4.8 5.4 2.8 3.8 3.9 1.9 3.7-1 3.6-2.4 1.4-5.1 0.9-5.9 2.4-3.4 4.3-2.3 5.6-2.4 3.1z" 
      data-type="area" class="area" style="-webkit-tap-highlight-color: rgba(0, 0, 0, 0); stroke-linejoin: round; cursor: pointer;"/>
   <path
      name="Hsinchu"
      id="TWN1162"
      d="M843.1 523.6l-2.3 6.5-1.4 4.7 0.6 4.4-3.8 5.8-14 14.2-4.3 10.5-2.8-0.8-10.6 1-0.8 0.6-0.6-4.9-4.6-7.8-3.3-3.3-1.3-4.4-5-4-12.5 3.2-4.8-0.5-6.8 0.5-7.7 2.1-4.1-1 0.9-5.1 1.3-4.6-1-4-1-2.9 1-3.1 0.8-3.5 0.3-3.9-0.7-5.2-3.9-3.4-12.1-5.7-6-4.5-3.9-4.4-4.4-11.1 2.4-3.1 2.3-5.6 3.4-4.3 5.9-2.4 5.1-0.9 2.4-1.4 1-3.6-1.9-3.7-3.8-3.9-5.4-2.8-15.1-4.8-8.3-3.6 1.5-2.3 0.6-3.9 0.9-2.9 2-2.9 2.7-2.1 2.5-0.9-0.2-1.2 0.7-2.9 2.2-6.1 2.1-3.3 3.1 1.1 13.7-1 4.6 3.1 4 8.7 5 2 4.3 1.2 4.1 2 6.8 2.2 3.6 4.2-1.1 5.8 3.5 3.7 6.5 2.1 4.2 3.1 3.1 3.1 3.8 0.7 3.9-0.3 3.4 3.5 2.6 4.5 4.3 2.2 3.4 2.6 0.4 5 1.6 7.3-1.9 7.8-4.6 6.5 0.5 4.3 5.2 3.9 6.2 3.8 5.5 0.9 4 2.9 7.3 4.1 4.8 2.2z" 
      data-type="area" class="area" style="-webkit-tap-highlight-color: rgba(0, 0, 0, 0); stroke-linejoin: round; cursor: pointer;"/>
   <path
      name="Yilan"
      id="TWN1163"
      d="M982.4 448.9l2.1 0.5 1.6 2.2-0.7 2.3-3.8-0.1-1.4-0.8-1.7-2.7 0.9 0.3 3-1.7z m-47 152.6l-1.1 0-11.1-1.7-18.5-11.1-3.8 0.9-2.4 6-4.9 4.5-6.5 0-8.3-3.2-15-3.8-6.5-3.1-2.5-2.1-5.9-4.7-4.9 0-4.7 2.3-4 0.6-3.7-2.5-4.4-2.6-4.9-1-1.4-3.8 0.6-5.5-3.6-1 4.3-10.5 14-14.2 3.8-5.8-0.6-4.4 1.4-4.7 2.3-6.5 0.5-1.5 3.9-1.6 3.3 0.6 3.4-1.3 2.2-3.8-3.1-12.4 5.4-3.9 3.1-0.9 5.7-1.6 4.9-1.8 3.8-3.3 5-3.5 6.6-3.2 3.9-2.8-0.4-2-1-3.2-0.2-4.2 2-4.9 4.7-4 3.8-2.3 13-5.3 13.5-8.1 6.2-1.9 5-3.6 3.1-5 3.3-4.1 3.7-2 3.5-1.2 4.6-2.9 1.6-3.8-2.5-3.6 1.4-2.9 11.2-2.3 3.7-2.5 8.4-4.4 5.9-1.3 3.3 1.9 0.8 1.1-12 6-5.5 4.7-18.7 22.8-2.9 4.8-2.3 6.8-1.6 7.7-0.5 7.6 0.3 7.4 3.3 15.5-0.2 4-1.5 3.9 0.2 8.1 3.5 6.3 6.5 4 7.6 1.4 0 1.8-3.2-0.3-3.1 0.3-2.6 0.8-1.9 1.4 2.7 5 1.3 6.5-0.8 5.6-6 3.4-0.4 2.5 0.7 3 1.7 2.7 0.6 2.8-2.5 2.4-6.2 3.6-7 8-0.3 3.2 0.5 7-1.2 2.6-1.3 2.3-0.8 3.2-0.5 6.4-0.6 1.6-1 1.3-0.5 1.4 1.3 1.9z" 
      data-type="area" class="area" style="-webkit-tap-highlight-color: rgba(0, 0, 0, 0); stroke-linejoin: round; cursor: pointer;"/>
   <path
      name="Keelung City"
      id="TWN1164"
      d="M934.8 365l-0.3 11.9 0.2 3 3.7 3.9-0.4 2.5-2.5 1.8-4 1.5-5.1-0.6-10.6-4.4-3-2.2-3.7-3.4-2.8-3.5-1.7-3.5-2.9-3.7-0.6-2.9 3.2-2.2 7.2-3.1 4.4-2.9 1.4 0.9 2.4 2.7 3.9 1.4 11.2 2.8z" 
      data-type="area" class="area" style="-webkit-tap-highlight-color: rgba(0, 0, 0, 0); stroke-linejoin: round; cursor: pointer;"/>
   <path
      name="Miaoli"
      id="TWN1165"
      d="M724.3 489l4.4 11.1 3.9 4.4 6 4.5 12.1 5.7 3.9 3.4 0.7 5.2-0.3 3.9-0.8 3.5-1 3.1 1 2.9 1 4-1.3 4.6-0.9 5.1 4.1 1 7.7-2.1 6.8-0.5 4.8 0.5 12.5-3.2 5 4 1.3 4.4 3.3 3.3 4.6 7.8 0.6 4.9-3.7 2.6-1.8 5.6-4.9 2-5.3-0.1-4.2 3-4.6 4.4-5.9 3.2-11.6 9.2-6.8 2.9-8.9 4.7-5.4-2.1-5-5.6-6-2.4-9.9-0.8-5.5 3.3-0.9 7.4-5.2 2.8-12.1 0.7-11.6-6.7-6.6-1.2-7.3-3.6-15.1-11.1-6.3-5.5-4.7-5-9.2-14.3 7.2-8.1 1.9-4 0.9-6.6 2.2-5.6 5.9-10.4 1.6-6.3 1.5-2.7 6.8-2 1.9-2.1 1.1-2.6 1.4-2.5 4.2-4.3 4.6-3.4 5.6-1.5 7.1 1.3-0.9-5.4 2.7-3.7 3.7-3.8 1.9-5.7 0.8-1.9 3.6-1.8 0.3-1.3 6.9 2.7 4.3 2.6 2.7 3.8 4.4 1.7 4.6-1.1 0.2-0.2z" 
      data-type="area" class="area" style="-webkit-tap-highlight-color: rgba(0, 0, 0, 0); stroke-linejoin: round; cursor: pointer;"/>
   <path
      name="Taipei City"
      id="TWN1166"
      d="M897.4 413.2l-4.2 1.7-5.8-0.1-4.8-1-3.7-3.3-3.8-4.3-5.8-4.6-3.9-6.7 1.5-7.4-1.2-6.3-5.7-5.5-3.8-4.2 1.6-3 1.8-2.4 2.1-4.6 3.6-4 10.9-6.4 2.9-2.5 4-2 3.8 1.2 2.1 2.2-0.5 3.6 0.4 3.5 3.2 6.8 2.5 10 3.9 3.5 1.6 4.4-1.6 6.6 0.1 5.1 4.6 2.6 3.8 3.2-2 4.3-7.6 9.6z" 
      data-type="area" class="area" style="-webkit-tap-highlight-color: rgba(0, 0, 0, 0); stroke-linejoin: round; cursor: pointer;"/>
   <path
      name="New Taipei City"
      id="TWN1167"
      d="M915.9 357.2l-4.4 2.9-7.2 3.1-3.2 2.2 0.6 2.9 2.9 3.7 1.7 3.5 2.8 3.5 3.7 3.4 3 2.2 10.6 4.4 5.1 0.6 4-1.5 2.5-1.8 0.4-2.5-3.7-3.9-0.2-3 0.3-11.9 34.6 8.4 3.2 2-1.6 3.7-0.4 2.9 0.7 5.2 2.4 8.7 2.6 4.1 2.2 0.9 7-1 3.6 0.4 4.2 1.1 3.7 1.9 2 2.5-8.7 4.3-0.8-1.1-3.3-1.9-5.9 1.3-8.4 4.4-3.7 2.5-11.2 2.3-1.4 2.9 2.5 3.6-1.6 3.8-4.6 2.9-3.5 1.2-3.7 2-3.3 4.1-3.1 5-5 3.6-6.2 1.9-13.5 8.1-13 5.3-3.8 2.3-4.7 4-2 4.9 0.2 4.2 1 3.2 0.4 2-3.9 2.8-6.6 3.2-5 3.5-3.8 3.3-4.9 1.8-5.7 1.6-2.5-5.4-8.9-8.5-1.4-5.6-0.8-5.2 3.1-3.7 1.5-5.3-8.5-12.3-5-2-7.4 0.4-5.1-2.9 1.3-6.7-1-5.1-5.4-5.1-1-5.1 1-5.8-0.2-6.2 3.7-4 13.1-3.9 3.3-3.4 1-4.2-0.5-4.1-5.1-7.5-4.2-2.2-4.1-1-3.2-2.8-4.7-3.1-6.3-3-4.2-4.6 11.2-2.1 4.8-1.8 6.1-5.2 1.9-0.9 2.2-0.4 3.1 0 3.5 1.1 1.9 2.7 1.2 2.7 1.5 1.6 3.5-1.4-3.6-5.7-5.8-5.9-3.1-1.9 0.9-2.7 1.8-1.5 1.9-0.9 0.8-1 2.1-5.1 3.2-5.9 6.6-5.9 9.6-4.9 11-2.5 10.8 1.2 4.5 3.4 10 14.2 3.6 7.4 1.2-0.5 2.7-0.7 3-0.4 2.2 0.6-0.1 0.9-1.1 1.3-1 1.8 0.1 2.2 1.1 1.2 2.3 1.7z m-18.5 56l7.6-9.6 2-4.3-3.8-3.2-4.6-2.6-0.1-5.1 1.6-6.6-1.6-4.4-3.9-3.5-2.5-10-3.2-6.8-0.4-3.5 0.5-3.6-2.1-2.2-3.8-1.2-4 2-2.9 2.5-10.9 6.4-3.6 4-2.1 4.6-1.8 2.4-1.6 3 3.8 4.2 5.7 5.5 1.2 6.3-1.5 7.4 3.9 6.7 5.8 4.6 3.8 4.3 3.7 3.3 4.8 1 5.8 0.1 4.2-1.7z" 
      data-type="area" class="area" style="-webkit-tap-highlight-color: rgba(0, 0, 0, 0); stroke-linejoin: round; cursor: pointer;"/>
   <path
      name="Taoyuan"
      id="TWN1168"
      d="M861.8 498.8l-3.1 0.9-5.4 3.9 3.1 12.4-2.2 3.8-3.4 1.3-3.3-0.6-3.9 1.6-0.5 1.5-4.8-2.2-7.3-4.1-4-2.9-5.5-0.9-6.2-3.8-5.2-3.9-0.5-4.3 4.6-6.5 1.9-7.8-1.6-7.3-0.4-5-3.4-2.6-4.3-2.2-2.6-4.5-3.4-3.5-3.9 0.3-3.8-0.7-3.1-3.1-4.2-3.1-6.5-2.1-3.5-3.7 1.1-5.8-3.6-4.2-6.8-2.2-4.1-2-4.3-1.2-5-2-4-8.7-4.6-3.1-13.7 1-3.1-1.1 8.9-14.2 6.9-8.3 7.2-6.1 18.4-6.1 4.3-2.7 3.7-3.2 4.5-2.5 9-3.2 20.1-3.6 4.2 4.6 6.3 3 4.7 3.1 3.2 2.8 4.1 1 4.2 2.2 5.1 7.5 0.5 4.1-1 4.2-3.3 3.4-13.1 3.9-3.7 4 0.2 6.2-1 5.8 1 5.1 5.4 5.1 1 5.1-1.3 6.7 5.1 2.9 7.4-0.4 5 2 8.5 12.3-1.5 5.3-3.1 3.7 0.8 5.2 1.4 5.6 8.9 8.5 2.5 5.4z" 
      data-type="area" class="area" style="-webkit-tap-highlight-color: rgba(0, 0, 0, 0); stroke-linejoin: round; cursor: pointer;"/>
   <path
      name="Changhua"
      id="TWN1169"
      d="M647.2 689.6l0.1 3.6-4.3 1.6-1.2 2.9 0.5 4-2 4.6-1.6 5.4-0.1 5.7-1.2 6.6-0.9 13.4 2.1 6.3 3.6 3.3 3.9 1.4 5.6 2.9-1 3.5-3.8 1.5-2.5 2.3-2.4 1.6-1 0.7-12-2.4-5.8 0.1-12.2-6-19.7-2.3-11.6-4.4-6.6-1.8-7.6-0.4-22 2.6-7.6-4.4 0.8-1.4 1.6-7.1 1.2-3 7.1-6.8 2-2.8 2.7-7.8 4.2-7.7 5.7-16.1 2.7-4.7 3-3 2.5-1.7 2.2-1.1 1.6-1.4 0.6-3 1.2-2.8 5.1-4 1.2-3 0.6-10.1 0.9-2.8 2.7-2.6 11.3-13.2 5.8 1.9 4 3.5 2.7 6.3 1 7.6 4.5 5.4 11.9 3.5 4.3 3.6 3.2 5 2 4 0.1 4 1.2 3.3 4.3 0.8 5.4 3.5 0 1.4z" 
      data-type="area" class="area" style="-webkit-tap-highlight-color: rgba(0, 0, 0, 0); stroke-linejoin: round; cursor: pointer;"/>
   <path
      name="Chiayi"
      id="TWN1170"
      d="M499.6 893.2l-1.8 1.4-0.4-1.1 2.4-3.1 0.9-2.4 1.1-1.5 0.6 0.5 0.1 1.1-1.4 2-1.5 3.1z m2.2-12.6l-0.7-0.7 2-3.8 0.9-0.4-0.5 1.9-1.7 3z m4.9-9l-0.1-4.4 0.5 0.4 0.1 2.9-0.5 1.1z m1.4-9.7l-0.8 1.6-0.5-2 1.3 0.4z m-1.3-6.1l-0.5 1.3-1.3-2.1 1.8 0.8z m-29.8 1l-3.2 1.6 3.8-5.4 13.9-14.1 10.6-13.5 2.5-0.8-9 14.7-4.5 4.5-2.9 3.5-3.8 3.8-3 2.1-4.4 3.6z m189.5-51.1l6.1 0.7 6.8 2.6 4.1 1.2 5.1 2.8-0.3 5.3-3 5.1 1.2 4.8 2.7 6.5 0.4 5.9 1.1 3.8 7.6 1.4 25.6 0.2 0.9 0.2-18.5 9.4-8.5 6.8-3.6 6.8-4.2 5-7.7 4.3-7.9 6.1-4.5 5.4-12.3 7.3-5.8 0.6-6.9-0.7-3.6 3.5-0.1 5 1.4 4.5 1 6.7-8.4-1-3.7-1.1-5 0.6-5.3 2.4-3.8 0-4.5-3.5-1.6-4.6 1.8-14.2-1-7.5-9.9-10.1-1.7-5.1-2.1-4.2-4-2.4-7.2-2.4-8.5 0.5-15.2 2.8-7.8 3.5-6.1 4.6-4.7 4.8-6.6 5.1-5.8 3.6-2.5 4.9-6.2 2.8-7.2-1.8-8.9-1.3-5.2-2 3.8-0.3 3.3-1.4 1.4 0.5-0.9-3.2-2.2 1.6-1.8-0.5-2.5-0.1 0-3.3 2.4-5.6 3.7-0.3 5.4 0.1-3.7-10.5-4.1-8 1.9-3.7 0-1.9-3.1-1.5 0.4-1.8 1.8-2 0.9-2.6 4-5.2-8.5 0.5-0.2-8.7 11.6-1.4 8.3 4.7 6.1 0.1 3.9-3.2 1.7-4.9 2.1-3 5.3-0.8 7-5.7 4.4-2.4 3.8-3.8 16.3-9.4 7.2-2 12.6-2.3 6.9-0.4 5.3 4.6 5 5.9 12.6 4.6 3.7-0.5 8.3-2.4 4.7 3.4 2.4 3.9 6.3-0.6 11.7-2.4 4-1.3 0-3.4 0.3-5 0.5 0z m-92.7 30.8l-3.8 4.1 0.9 5.6 6.1 2.4 7 4.5 7.3 1.7 6.8-2.7 4.5-0.6 3-2.2-2.5-6.8-2.5-4-4.1-2.2-5.6-2.1-7.8 0.7-9.3 1.6z" 
      data-type="area" class="area" style="-webkit-tap-highlight-color: rgba(0, 0, 0, 0); stroke-linejoin: round; cursor: pointer;"/>
   <path
      name="Chiayi City"
      id="TWN1171"
      d="M573.8 836.5l9.3-1.6 7.8-0.7 5.6 2.1 4.1 2.2 2.5 4 2.5 6.8-3 2.2-4.5 0.6-6.8 2.7-7.3-1.7-7-4.5-6.1-2.4-0.9-5.6 3.8-4.1z" 
      data-type="area" class="area" style="-webkit-tap-highlight-color: rgba(0, 0, 0, 0); stroke-linejoin: round; cursor: pointer;"/>
   <path
      name="Hualien"
      id="TWN1172"
      d="M935.4 601.5l0.6 0.8 1.6 2.9 0.2 1.1-1.4 2.4-5.8 5.7-6.2 8.6-4.7 3.7-1.4 2 0.7 2.1-0.9 1.5-6.6 5.1-2.5 2.4-2.8 6-2.9 12.2-7.4 10.9-1.5 4.4 0.2 4.7 1.8 5.2 1.5 2.3 1.3 1 0.8 1.4 0.1 3.2-1.1 3.6-3.7 5.8-0.7 3.5-0.4 6.4-3.2 16.3-6.4 17-8 40.1-4.8 9.8-11 64.1-3.5-1-10.8 5.2-3.9 5.4 1.7 6.9 0.6 6.9-3.6 6.9-3.4 5.2-2.7 6.6-2.4 8.4-3.7 7.7-4.8 13.2-3.1 6.1 0.1 6.7-0.9 6.2-6.5 3.7-8.2-1.1-11.7-9.7-9.2-16-5.7-1.5-6.3-0.9-5-4.8-6.1-2.9-7.8-2.8-5-8.1-1.2-7.4-0.3-2.5-2.8-7.6-6.3-5.2-5.6-3.6-1-4 1.4-3.2 5.6-2.4 3-5-1.9-5.8 6-3.5 3.1-2.8-1.7-6.2 1.5-2.7 1.5-4 5.2-3.9 7.4-1.6 7.4-0.3 5.3-4.7 1.3-8.5 4-5.2 7.6-2.8 4.5-3.1 1.6-5.1 3.2-12.6 1.2-8.4-0.9-7.2-1.2-5.4-3.2-4.1-2.1-4 5.7-9.4 0.2-3.7 2.5-7 3.9-8.5 3-8.8 1.6-9.9 0.6-7.6-1.8-4.5-2-3.3 2.3-7.6 5.1-10.7 8-10.4 0.3-3.9-1.5-4.5-5.2-3.4-2.9-3.1-0.2-9.9 3.7-2.9 6.6-2.2 5.2-2.4-0.2-3.7-1.4-6.2 2.8-2 1.2-2.1 3.4-1.7 3.1-3.8 1.3-5.1 3-5 7.5-4.7 2.4-6.2 0.4-4.2 4.7-4.9 2.5 2.1 6.5 3.1 15 3.8 8.3 3.2 6.5 0 4.9-4.5 2.4-6 3.8-0.9 18.5 11.1 11.1 1.7 1.1 0z" 
      data-type="area" class="area" style="-webkit-tap-highlight-color: rgba(0, 0, 0, 0); stroke-linejoin: round; cursor: pointer;"/>
   <path
      name="Nantou"
      id="TWN1173"
      d="M825 627.6l1.4 6.2 0.2 3.7-5.2 2.4-6.6 2.2-3.7 2.9 0.2 9.9 2.9 3.1 5.2 3.4 1.5 4.5-0.3 3.9-8 10.4-5.1 10.7-2.3 7.6 2 3.3 1.8 4.5-0.6 7.6-1.6 9.9-3 8.8-3.9 8.5-2.5 7-0.2 3.7-5.7 9.4 2.1 4 3.2 4.1 1.2 5.4 0.9 7.2-1.2 8.4-3.2 12.6-1.6 5.1-4.5 3.1-7.6 2.8-4 5.2-1.3 8.5-5.3 4.7-7.4 0.3-7.4 1.6-5.2 3.9-1.5 4-1.5 2.7 1.7 6.2-3.1 2.8-6 3.5-0.7-2-4.2-5.9-5.8-2.2-4.3-1-0.9-0.2-25.6-0.2-7.6-1.4-1.1-3.8-0.4-5.9-2.7-6.5-1.2-4.8 3-5.1 0.3-5.3-5.1-2.8-4.1-1.2-6.8-2.6-6.1-0.7-2.6-3.5-8.2 0.9-6.8 2-5.8-2.5-4-4.7 0.9-5.7 1.9-5.2-1-7.7 1-7.2 2-4.7-1.9-7.2 2.4-1.6 2.5-2.3 3.8-1.5 1-3.5-5.6-2.9-3.9-1.4-3.6-3.3-2.1-6.3 0.9-13.4 1.2-6.6 0.1-5.7 1.6-5.4 2-4.6-0.5-4 1.2-2.9 4.3-1.6-0.1-3.6 4.3 0.2 17.9 2.5 4.2-0.6 5-4.8 7.6-14.4 3.7-8.5 6.4-3 10.1 1.4 6-0.2 5.8-7.7 3-1.9 8.9 6.7 3.5-0.9 2.6-5.5 4.7-3.9 6.6 0.1 5-1.9 7.9-7.6 5.1-2.9 4.4-0.8 8.8-4.7 6.2-0.2 6.3-1 11.1-4.4 4.6-0.3 4.7 1 13.4 1.3z" 
      data-type="area" class="area" style="-webkit-tap-highlight-color: rgba(0, 0, 0, 0); stroke-linejoin: round; cursor: pointer;"/>
   <path
      name="Taichung City"
      id="TWN1174"
      d="M803.7 570.5l0.8-0.6 10.6-1 2.8 0.8 3.6 1-0.6 5.5 1.4 3.8 4.9 1 4.4 2.6 3.7 2.5 4-0.6 4.7-2.3 4.9 0 5.9 4.7-4.7 4.9-0.4 4.2-2.4 6.2-7.5 4.7-3 5-1.3 5.1-3.1 3.8-3.4 1.7-1.2 2.1-2.8 2-13.4-1.3-4.7-1-4.6 0.3-11.1 4.4-6.3 1-6.2 0.2-8.8 4.7-4.4 0.8-5.1 2.9-7.9 7.6-5 1.9-6.6-0.1-4.7 3.9-2.6 5.5-3.5 0.9-8.9-6.7-3 1.9-5.8 7.7-6 0.2-10.1-1.4-6.4 3-3.7 8.5-7.6 14.4-5 4.8-4.2 0.6-17.9-2.5-4.3-0.2 0-1.4-5.4-3.5-4.3-0.8-1.2-3.3-0.1-4-2-4-3.2-5-4.3-3.6-11.9-3.5-4.5-5.4-1-7.6-2.7-6.3-4-3.5-5.8-1.9 0.6-0.8 0.8-3.3 3.3-2.7 2.2-6.5 2.7-12.3 9.3-16.1 2.8-9.9 3.4-5.5 13.3-14.8 9.2 14.3 4.7 5 6.3 5.5 15.1 11.1 7.3 3.6 6.6 1.2 11.6 6.7 12.1-0.7 5.2-2.8 0.9-7.4 5.5-3.3 9.9 0.8 6 2.4 5 5.6 5.4 2.1 8.9-4.7 6.8-2.9 11.6-9.2 5.9-3.2 4.6-4.4 4.2-3 5.3 0.1 4.9-2 1.8-5.6 3.7-2.6z" 
      data-type="area" class="area" style="-webkit-tap-highlight-color: rgba(0, 0, 0, 0); stroke-linejoin: round; cursor: pointer;"/>
   <path
      name="Yunlin"
      id="TWN1176"
      d="M642 760.2l1.9 7.2-2 4.7-1 7.2 1 7.7-1.9 5.2-0.9 5.7 4 4.7 5.8 2.5 6.8-2 8.2-0.9 2.6 3.5-0.5 0-0.3 5 0 3.4-4 1.3-11.7 2.4-6.3 0.6-2.4-3.9-4.7-3.4-8.3 2.4-3.7 0.5-12.6-4.6-5-5.9-5.3-4.6-6.9 0.4-12.6 2.3-7.2 2-16.3 9.4-3.8 3.8-4.4 2.4-7 5.7-5.3 0.8-2.1 3-1.7 4.9-3.9 3.2-6.1-0.1-8.3-4.7-11.6 1.4 4.6-5.2-0.2-16.4 0.7-12.3 2.8-9.8 4.3-7.7 1.3-10 2.3-8.8 1.3-3 6.1-8.1 1.1-2.8 0.7-1.5 5.6-4.3 0.8-1.6 7.6 4.4 22-2.6 7.6 0.4 6.6 1.8 11.6 4.4 19.7 2.3 12.2 6 5.8-0.1 12 2.4 1-0.7z" 
      data-type="area" class="area" style="-webkit-tap-highlight-color: rgba(0, 0, 0, 0); stroke-linejoin: round; cursor: pointer;"/>
   <path
      name="Taitung"
      id="TWN1177"
      d="M889.2 1263l-5.5 1.7-7.3-2.9-6.8-4.8-3.9-3.7 1.2-2.7-0.1-2.5-1-2.4-1.7-2.1 19.5 0 0 1.8-1.3 3.5-0.4 2.9 0.9 2.5 4.7 3.5 2 2.5-0.3 2.7z m-24-177.6l-0.1 1.1-3.4-0.4-0.4-0.6-2.7-1-2.8-4.9-1.4-4.3 0.6-0.6 10-0.7 1.1 0.6 0.8 2-0.8 3.9-0.9 1.6-0.4 1.7 0.4 1.6z m-163.1 114.1l-4.5 0.3-10.2-4.7-4.6-4.9-3.2-5.9-0.6-6.1 0.1-5.7-3.1-4.4-3.4-1.7-2.7-3.9 0.5-4.5 2.1-3.9 5.3-3.2 2.5-3.8-4.6-5.6-2.6-5 0-5.4-1.1-7.1-2-6.1-1.2-6.5 0.8-14.7 3-7.5 3.7-6.6 2.4-6.6 5.4-4.5 7.6-1.6 4.8-2.7 9.8-4.1 2-5 0.1-5.2 2.8-13.8-5.5-3.6-5.4-1.3-0.7-4.9-3.5-6.6 3.9-0.5-1.2-4.9-6.2-6.4-3-4.6-1.3-8.1 2.3-9.8 8.5-7.2 4.3-5.9 0.1-11.2 3-13.2-2.1-9.9 0.8-6.9 7.4-4 2.7-4.9-2.3-6 0.9-5.7 7.8-5.1 4-3.9 6.4-4.1 15.6-3.8 1.2 7.4 5 8.1 7.8 2.8 6.1 2.9 5 4.8 6.3 0.9 5.7 1.5 9.2 16 11.7 9.7 8.2 1.1 6.5-3.7 0.9-6.2-0.1-6.7 3.1-6.1 4.8-13.2 3.7-7.7 2.4-8.4 2.7-6.6 3.4-5.2 3.6-6.9-0.6-6.9-1.7-6.9 3.9-5.4 10.8-5.2 3.5 1-4.6 26.4-2.2 4.9-7.1 9.4-2.6 4.9-2.1 6.1-1.5 11.4 0.2 10.2-1 9.7-4.9 9.9-2.1 2.1-4.7 3.5-2.2 2.2-1 2.3-1.7 5.8-4.8 8.4-2.9 13.1-2.1 5.9-10.3 14.8-1.3 2.7-13.9 11.8-3.3 3.8-0.4 2.7 0.6 6.2-0.2 2.8-1.2 3.2-2.2 3.5-4.7 6.1-4.7 4.5-16.1 10.7-10.8 11.9-2.7 1.4-2.1 2.7-5.2 13.5-2.6 5-8 10-3.3 6-1.9 12.3-4.8 16.8-9.5 16.7-1.4 5.7-1.7 16.1 0.3 14.7z" 
      data-type="area" class="area" style="-webkit-tap-highlight-color: rgba(0, 0, 0, 0); stroke-linejoin: round; cursor: pointer;"/>
   <path
      name="Penghu"
      id="TWN3414"
      d="M320.7 926.5l-1.8 0.9-1.3-1.5-1.5-4.7 1-1.2 3.8-1.3 2.7 0.7 0.1 2.1-0.2 1.6-1.2 1.2-1.6 2.2z m-1.2-12l-1.7 3.1-2.2-0.6-2-2.5-0.3-2.5 1.2-1.1 3.2 0.5 1.8 3.1z m48.8-3.2l-0.4 0.1-1.2-1.5 0.3-0.6 2.5-0.2 0.8 2-2 0.2z m14-4.6l0.3 0.2 2.3 0 0 1.3-1.1 1.5-0.7 1.8-1.1-2.8 0.3-2z m-33.5-29.6l-1.7 0.1-3 1.8-0.4-0.4 0.4-1.3 1.1-1.5 0.7-0.6 1.6-0.3 1.5 0.9-0.2 1.3z m-8.4-6.7l0.1 2.3 0.5 1.6 1.4 1.2-0.6 1.6-1.2 1.2 0.6 1.9-1.5 0.6-3.1-0.3-1.6-0.7 1.4-3.1-0.2-4.2-0.9 0.6-2 0.6-0.6-2.3 2.1-5.1 1.6-0.3 2.7 3.6 1.3 0.8z m-49.5-5.7l2.4 0.6 0 1.6-0.6 0.9-2.1 0.6-1.1-1.1 1.4-2.6z m58.5-24.8l-3.2 2.1-2.1 0.6-2.2 1.1-1.3-0.5-0.3-1.8 0.7-0.6 1.8 0.5 4-2 2.6 0.6z m19.5-28l-0.6 1.3 4-1.3 3.1 0.4 2.3-0.2 1.6-2.7 4.7 8.7 1.2 4-0.5 3-2-2-2.5-1.7-2.8-0.5-4 2.2-2.8 0.3-1.4 0.8-0.7 1.5-1.1 4.1-0.7 1.2-4.7 2.7-4.8 0.7-4.8-1.9-4.9-4.9 1.3-2.5 2.7 3.2 4 0.9 4.3-1.2 3.5-2.9-2.4-0.9-2-1.2-1.5-1.6-1.4-2.2-0.8 1.4-1 0.6-0.3-4 0.3-4 1.8 0 2.1 0.5 7.4-4.6 4.6-1.6-1.2 4.4z m-39.9 9.3l-3.8 0 0.7-2.1 1.2-1.3 1.9-0.5 2.5-0.2 2.2-0.9 0.6-2 0.1-4.8 3.2-10.4 3.1-3 4.2 3.6-2.5 1.5-1.7 3.6-2.8 8.5-0.1 2.2 0.7 2-0.3 1.3-3 0.5-2.2 0.1-1.5 0.3-1.3 0.6-1.2 1z m33.8-17.9l-2.2 0.7-1.1-1.5-0.9-3.5-2-2.9-4.3-4.3 5.5-4.1 3.3 1.7 3.2 2.8 1.4 2.9-2.5 2.4 1 3.5-1.4 2.3z m2.6-30.4l-0.3 0.9-1.3-3-0.2-1.4 1.8-1.5 1.6-3 0.5 1.1 2.5 1.4-0.4 1.8-2.2 1.3-2 2.4z" 
      data-type="area" class="area" style="-webkit-tap-highlight-color: rgba(0, 0, 0, 0); stroke-linejoin: round; cursor: pointer;"/>
   <path
      name="Kinmen"
      id="TWN3415"
      d="M9.2 576.4l-5.2 1.5-3-1.2 5-9.9 1.3-1.4 2.1-0.5 2.1-0.1 2 1.4 1.6 1.8 0 3.1-1.4 2.1-1.6 0.1-1.1 1.2-0.6 1.2-1.2 0.7z m55-26.8l4.7 12.6-1 8.8-3.9 4.6-6.8-4.3-5-1.6-8.1 0.8-7.1 4.5-3.9 6.1-3.4 1.7-3.9-1.9-2.7-0.1-2.4-1.1-1.2-2.1 0.5-0.7 2.1-2.8 0.7-1.2 0.2-2.1-0.1-2.5-0.7-4.3-1.8-4.2-0.2-2.1 1.5-0.9 7.6-3.7 10 6.6 7-0.9 1.1-8.7 2.3-5.5 7.5-1.5 7 6.5z m269.3-137.7l-2.9 1.5-1.3-1.2 0.7-3.2 2.4-1.4 1.7 0.3 0.2 1.9-0.8 2.1z" 
      data-type="area" class="area" style="-webkit-tap-highlight-color: rgba(0, 0, 0, 0); stroke-linejoin: round; cursor: pointer;"/>
   <path
      name="Lienchiang"
      id="TWN5128"
      d="M469.2 123.9l-0.2 2.3-1.9 2.1-4.1 2 2.5-5.6 2.5 0.5 0.1-0.9 1.1-0.4z m-11.8-0.8l-2 2.1-2.4-3.4 3.6-1.3 2.7 1.5-1.9 1.1z m-3.2-54.9l1 0.5 4.4-2.6 2.8 0 0 1.8-2.8 3.2-5.5 2.9-1.7 0.3-2.5-1.7-0.8-2.4 0.5-2.8 1.1-2 1-0.2 0.3 2.2 2.2 0.8z m21.3-17.8l-0.6 2.2 0.6 1.2-1.4-0.2-1.5-2.2-1.1-0.7-2.3 1.3-1-0.4-1.3 0.3-1.5 1.7-1.2 5-1.1-0.7-0.5-1.5 0.5-4.3 0.5-1.6 1.1-0.7 2.7-0.9 0.7-0.9 2.2-1.3 2.5 0.4 1.3 1.9 1.4 1.4z m129.8-45.6l-1.2 0.4-1.1-0.4-1.4 1.3-1.1 2.1-0.3-0.5-1.2-0.2-1.8-1 1.1-1.7-0.5-1.4 0.9-0.6 2.2-1.8 2.6 1.5 0.6 1.3 1.2 1z" 
      data-type="area" class="area" style="-webkit-tap-highlight-color: rgba(0, 0, 0, 0); stroke-linejoin: round; cursor: pointer;"/>
   <circle
      id="0"
      cy="358" cx="894" 
      r="8" fill="#ffa000" stroke="#000000" stroke-width="0" stroke-linejoin="round" 
      x="358" y="894"
      data-type="plot" class="polt" style="-webkit-tap-highlight-color: rgba(256, 160, 0, 50); stroke-linejoin: round; cursor: pointer;"
      />
   <circle
      id="1"
      cy="526.1" cx="669.9" 
      r="8" fill="#ffa000" stroke="#000000" stroke-width="0" stroke-linejoin="round" 
      y="526.1" x="669.9" 
      data-type="plot" class="polt" style="-webkit-tap-highlight-color: rgba(256, 160, 0, 50); stroke-linejoin: round; cursor: pointer;"
      />
   <circle
      id="3"
      cy="1021.4" cx="569.7" 
      r="8" fill="#ffa000" stroke="#000000" stroke-width="0" stroke-linejoin="round" 
      x="358" y="894"
      data-type="plot" class="polt" style="-webkit-tap-highlight-color: rgba(256, 160, 0, 50); stroke-linejoin: round; cursor: pointer;"
      />
   <circle
      id="2"
      cy="1021.4" cx="569.7"
      r="8" fill="#ffa000" stroke="#000000" stroke-width="0" stroke-linejoin="round" 
      x="358" y="894"
      data-type="plot" class="polt" style="-webkit-tap-highlight-color: rgba(256, 160, 0, 50); stroke-linejoin: round; cursor: pointer;"
      />
</svg>
